<svg width="109" height="167" viewBox="0 0 109 167" fill="none" xmlns="http://www.w3.org/2000/svg">
    <path fill-rule="evenodd" clip-rule="evenodd"
        d="M32.5662 1.41709C26.392 3.53199 21.8787 5.82141 19.9635 7.80952C18.9417 8.8705 16.6048 13.8379 15.4704 17.36C13.8582 22.367 13.9974 24.2935 16.4834 31.3716C17.8418 35.2397 18.5762 36.6946 19.5116 37.3696C20.5442 38.1151 23.0738 38.3212 24.1806 37.7505C24.6415 37.5127 26.4074 35.495 28.1473 33.2177C29.8721 30.9605 31.3577 29.1059 31.4487 29.0966C31.5396 29.0873 31.0037 32.1542 30.2573 35.9115C28.35 45.5174 28.0829 47.9387 28.6793 50.2185C28.9373 51.2055 29.4054 52.3701 29.7193 52.8067L30.2901 53.6008L29.3088 55.2484C27.3622 58.518 27.184 59.4993 26.7156 69.5381C26.2232 80.0875 25.872 84.1851 25.2576 86.5482C23.7697 92.2703 18.9779 97.698 9.61092 104.272C3.91365 108.27 2.69858 110.043 2.99479 113.923C3.26877 117.513 4.68168 119.623 7.27716 120.32C9.116 120.813 13.7194 120.477 16.9959 119.611C18.546 119.201 19.8449 118.901 19.8825 118.945C20.0359 119.123 17.0949 131.026 15.6064 136.253L14.0122 141.851L12.1844 143.643C9.8752 145.908 8.45944 148.639 8.04149 151.636C7.87927 152.797 7.65433 153.826 7.54115 153.921C7.42826 154.017 6.59294 154.386 5.68549 154.741C0.380215 156.818 -1.89596 162.81 1.85015 164.838C2.62902 165.26 3.423 165.33 6.90797 165.286C9.18157 165.257 11.6833 165.121 12.4673 164.984C13.6983 164.768 14.078 164.824 15.2512 165.396C17.9787 166.725 19.6886 166.961 26.8644 166.997C30.5492 167.016 34.555 166.926 35.7664 166.797C38.3434 166.522 38.9381 166.077 39.8446 163.747L40.4237 162.26L44.7773 161.228C48.3869 160.372 49.0973 160.273 48.9345 160.649C47.6114 163.702 48.4633 165.68 51.3664 166.297C52.9632 166.636 74.4523 166.25 81.9083 165.748C89.7038 165.223 92.2158 164.61 92.5875 163.142C92.6762 162.792 93.1959 162.202 93.7424 161.832C96.8471 159.724 101.934 149.839 104.517 140.894C105.898 136.109 107.041 127.302 107.957 114.365C109.104 98.1775 109.322 86.5084 108.526 83.8804C107.59 80.7884 104.943 79.4603 103.186 81.2007C101.99 82.3851 101.55 84.1846 101.256 89.0899C100.393 103.483 99.783 111.744 99.3898 114.365C98.9927 117.011 97.2436 125.527 96.816 126.897C96.7154 127.219 96.2815 126.001 95.7099 123.79C95.1924 121.79 94.2585 118.883 93.6347 117.33C92.549 114.629 91.8232 112.662 85.8636 96.2911C84.4219 92.3304 81.0308 83.6254 78.3278 76.9466C71.8049 60.8292 71.1845 59.0393 70.7957 55.2105C70.624 53.5209 70.4835 50.6582 70.4835 48.8489V45.5589L72.2653 45.5702C74.7248 45.5852 77.1677 44.4674 78.9767 42.4982C81.1234 40.1619 89.5847 25.4731 89.5847 24.0829C89.5847 23.1275 88.1911 18.9663 87.2543 17.1245C86.7933 16.2183 85.8785 14.8981 85.2207 14.1904C83.7423 12.5988 75.3204 7.01823 73.2252 6.24191C71.5201 5.6099 65.912 4.89147 60.6478 4.63053C58.2185 4.51023 56.6069 4.26623 55.0885 3.78926C52.3 2.91297 49.8189 2.53879 46.7815 2.53625C44.6291 2.53427 44.0825 2.42442 42.4393 1.6625C40.615 0.81699 37.9984 -0.00197324 37.1277 3.57147e-06C36.8925 0.000568373 34.8399 0.638229 32.5662 1.41709ZM33.7845 3.88697C32.1808 4.47126 30.7408 5.07644 30.5843 5.23148C30.2599 5.55285 27.6915 10.7146 27.2191 11.9944C27.0472 12.4604 26.6962 13.8244 26.4393 15.0257C25.5125 19.3594 23.3013 21.2764 19.2587 21.2504L17.1006 21.2366L17.2349 23.252C17.3289 24.6601 17.8147 26.5838 18.8471 29.6366C20.6255 34.8954 20.8555 35.2925 22.1262 35.2925C22.9635 35.2925 23.2534 35.0652 24.5577 33.3863C25.9649 31.5752 26.0299 31.4165 25.864 30.2067C25.6434 28.597 26.085 25.8332 26.8177 24.2376C27.1284 23.5613 27.9232 21.5466 28.5841 19.7604C29.2449 17.9743 30.0207 16.0522 30.3083 15.4894C31.2614 13.6225 33.7845 11.9837 36.2003 11.6626C37.2646 11.5211 37.8613 11.211 38.9808 10.2184C40.9371 8.48389 41.5367 8.24018 42.2582 8.88688C43.1754 9.70895 42.9399 10.3469 41.0839 12.069C39.2212 13.7975 37.4695 16.144 36.7257 17.9076C36.4749 18.5021 35.8183 21.4814 35.2661 24.5282C34.7141 27.575 33.7602 32.5461 33.1464 35.5749C31.3706 44.3372 30.9674 47.4549 31.3663 49.3397C31.7523 51.1614 32.7002 52.3193 34.2526 52.8652C35.6632 53.3611 41.0021 53.2501 43.8274 52.6661C46.6053 52.0917 47.7066 51.48 50.821 48.7805C52.8072 47.0587 54.156 45.4329 58.4278 39.6124C61.2836 35.7209 63.7853 32.4747 63.9871 32.3987C64.9895 32.0209 66.2675 33.349 65.7504 34.2309C65.6358 34.4264 63.2219 37.7466 60.3864 41.609C56.7044 46.6244 54.6768 49.1183 53.2916 50.3351L51.3524 52.0386L52.7753 52.8093C56.8153 54.9979 57.9642 57.2017 58.3665 63.5326C58.8303 70.8383 59.4473 77.4287 59.8336 79.2058C60.0699 80.2931 60.3773 82.1357 60.5161 83.3006C60.6552 84.4655 60.9623 86.0292 61.1983 86.7753C61.667 88.2562 62.2158 92.8927 62.2158 95.3699C62.2158 97.3001 61.5689 98.4258 59.6642 99.8106C57.8468 101.132 55.4939 102.142 52.8352 102.743L50.6744 103.231L48.8823 110.704C47.8286 115.097 46.1224 121.117 44.7414 125.31L42.3928 132.442L43.1024 133.145C44.0703 134.104 44.0272 135.714 42.9704 138.086C42.4173 139.328 42.1248 140.504 42.0661 141.72C41.9338 144.464 40.4545 146.276 38.3482 146.276C37.5251 146.276 37.502 146.322 35.4092 152.229C34.2335 155.547 33.1059 158.281 32.8619 158.407C32.621 158.532 31.3332 158.695 30.0004 158.77C27.4406 158.915 25.3896 159.488 23.8487 160.488C22.8817 161.117 22.0178 162.304 22.0178 163.007C22.0178 164.135 26.0718 164.581 32.9959 164.214L36.8207 164.011L37.7207 161.216C38.6795 158.239 40.9525 153.906 50.8846 136.124C53.8732 130.774 56.2018 126.357 56.0598 126.308C54.9317 125.923 52.6778 124.339 52.2077 123.601C51.7415 122.869 51.6554 122.361 51.7578 120.947C51.8604 119.528 52.1532 118.699 53.3081 116.558C54.091 115.107 54.8185 113.527 54.9249 113.048C55.3029 111.343 57.0625 110.376 58.4726 111.098C59.38 111.563 61.0142 113.414 61.7172 114.773L62.1474 115.604L62.7535 114.428C63.0871 113.78 63.5024 112.262 63.6769 111.054C64.025 108.642 63.858 101.198 63.3454 96.2936C63.044 93.4097 63.0523 93.318 63.6553 92.8342C64.4344 92.2093 64.6553 92.2124 65.3065 92.8574C65.8995 93.4448 66.0549 94.5738 66.5162 101.651C66.8107 106.167 66.6909 110.557 66.2139 112.741C66.0868 113.324 66.0383 113.8 66.1062 113.8C66.1743 113.8 66.7057 113.561 67.2876 113.268C69.0968 112.36 71.3428 112.018 74.5161 112.17C79.0072 112.384 80.8982 113.419 79.6312 114.969C79.1389 115.571 79.138 115.571 76.4567 115.083C73.0393 114.461 70.8213 114.666 68.4921 115.819C66.5182 116.796 65.386 118.028 64.1821 120.51C62.8302 123.296 62.4191 125.767 62.5967 130.038C62.8801 136.85 65.5925 144.404 70.6816 152.553C72.0216 154.699 72.2171 155.179 71.9697 155.717C71.7125 156.276 70.522 156.639 61.8965 158.786C53.687 160.829 52.0343 161.324 51.6124 161.867C50.925 162.752 50.9721 163.403 51.7387 163.607C52.6829 163.857 59.4256 163.817 69.9133 163.497C79.717 163.198 85.4206 162.837 88.4095 162.329L90.2278 162.02L89.9775 159.302C89.8398 157.807 89.7272 155.46 89.7272 154.087C89.7272 151.804 89.7848 151.545 90.4003 151.051C91.2028 150.408 91.3134 150.398 92.0074 150.9C92.4718 151.237 92.5379 151.642 92.502 153.936C92.4789 155.392 92.5516 157.156 92.6631 157.854L92.8661 159.125L94.074 157.459C97.4908 152.744 101.547 142.79 102.831 135.968C103.685 131.432 104.801 120.69 105.412 111.117C105.591 108.312 105.586 108.278 104.573 106.089C104.013 104.877 103.554 103.63 103.554 103.319C103.554 103.008 103.444 102.82 103.31 102.903C103.175 102.985 102.975 104.867 102.865 107.085C102.544 113.544 101.642 118.83 98.9961 129.742C98.1052 133.416 97.9245 134.614 98.0519 136.004C98.1947 137.565 98.1494 137.764 97.559 138.173C96.7869 138.709 95.961 138.398 95.5921 137.434C95.4621 137.094 95.0644 134.973 94.7083 132.721C93.7498 126.659 92.7018 122.795 90.2466 116.271L88.0415 110.411H86.5042C85.6564 110.411 84.5152 110.199 83.9595 109.938C82.2264 109.123 78.8963 104.044 77.6034 100.245C77.101 98.7677 76.9742 97.7192 76.9545 94.8791C76.9206 89.9822 77.446 88.6663 79.4351 88.6663H80.1564L79.5716 87.3249C78.181 84.1354 70.9986 66.1877 69.8226 62.9641C68.1386 58.3474 67.8199 56.0148 67.7791 48.0005C67.758 43.8837 67.6192 40.9351 67.413 40.2345C67.2303 39.6132 66.3622 34.7842 65.4841 29.5033C64.5647 23.9744 63.659 19.3885 63.3485 18.6918C62.9417 17.7786 62.5448 17.3742 61.7286 17.0412C61.1342 16.7986 60.2245 16.4041 59.707 16.1646C57.2515 15.0277 56.8558 9.59401 59.2286 9.59401C60.1244 9.59401 60.5053 10.3458 60.5053 12.1142V13.542L62.2871 14.3431C64.4581 15.3194 65.7629 16.7243 66.336 18.7026C66.5717 19.5176 67.4056 24.0834 68.1888 28.8495C70.3464 41.9769 70.6115 42.9173 72.1581 42.9173C72.7896 42.9173 74.6145 42.4677 74.964 42.226C74.9976 42.2028 74.7091 41.5646 74.3225 40.8081C73.4755 39.1509 73.4467 38.0809 74.17 35.1343C74.5463 33.6012 74.7596 31.5078 74.8443 28.5149C74.9207 25.8075 75.1065 23.8465 75.3309 23.3746C75.7289 22.5387 77.1575 21.7372 78.2497 21.7372C79.5791 21.7372 82.3408 23.3766 83.7351 24.9933C84.4678 25.8431 85.1637 26.5381 85.2815 26.5381C85.3995 26.5381 85.7887 25.919 86.1464 25.1625L86.7967 23.7869L86.1681 21.8132C85.8223 20.7277 85.0668 18.9751 84.4895 17.9186C83.5689 16.2341 83.1142 15.7662 80.797 14.1186C76.6928 11.2012 73.0448 9.04248 71.4816 8.60645C69.7545 8.12468 62.1594 7.3348 59.2549 7.3348C57.6883 7.3348 56.4387 7.10945 54.3396 6.44863C51.9043 5.68191 51.0057 5.54692 47.6761 5.44695C43.9101 5.33399 43.7752 5.30773 41.4041 4.22416C37.9439 2.64271 37.2788 2.61334 33.7845 3.88697ZM39.3397 17.9031C36.9016 18.765 36.1045 20.0635 37.4433 20.9923C37.9799 21.3645 38.1797 21.3512 39.3198 20.8672C40.9568 20.1722 42.4435 20.1804 43.6204 20.8912C45.128 21.8016 46.2507 21.4966 46.2507 20.1767C46.2507 18.2493 42.1639 16.9045 39.3397 17.9031ZM49.743 20.1637C48.9972 20.4992 48.8165 20.7455 48.8165 21.4272C48.8165 22.5353 49.4366 22.8502 51.2532 22.6644C53.051 22.4805 54.455 23.0671 55.5164 24.4455C56.6163 25.8739 58.2245 25.6578 58.2245 24.082C58.2245 23.2371 56.4342 21.2877 54.9862 20.556C53.5014 19.8056 50.9624 19.6159 49.743 20.1637ZM38.3978 24.9722C37.4214 25.9391 37.4308 27.603 38.4178 28.5214C39.9778 29.9735 42.5567 28.854 42.5353 26.7341C42.514 24.5901 39.9048 23.4791 38.3978 24.9722ZM50.8341 26.422C49.7713 27.3076 49.6578 28.627 50.5479 29.7476C51.0245 30.3479 51.3783 30.4917 52.3801 30.4917C53.382 30.4917 53.7358 30.3479 54.2124 29.7476C55.2291 28.4674 54.9654 26.7815 53.6425 26.104C52.4916 25.5144 51.8336 25.5889 50.8341 26.422ZM36.7477 40.4864C33.2282 41.4536 31.8846 43.9385 33.1205 47.1948C34.2654 50.2123 36.9971 52.519 39.4253 52.519C41.0631 52.519 42.2639 51.879 43.9608 50.1016C47.683 46.2033 47.7477 42.0904 44.1056 40.9007C42.051 40.2294 38.4257 40.0252 36.7477 40.4864ZM46.9871 54.6779C44.6427 55.5155 40.8014 55.9665 37.2708 55.8191C35.3889 55.7406 33.5193 55.5909 33.1162 55.4864C32.4348 55.3099 32.3085 55.4429 31.3264 57.3672C29.9907 59.9842 29.8265 61.1116 29.4399 70.3102C29.0667 79.1875 28.6907 83.8573 28.1336 86.5384C27.1324 91.3564 23.5294 96.5901 17.9447 101.339L15.5023 103.416L17.0629 105.29C19.4648 108.173 20.8661 111.482 20.8741 114.29L20.8775 115.486L22.3688 114.904C25.5841 113.648 28.1718 112.325 30.8816 110.549C32.4377 109.529 35.6019 107.728 37.9137 106.545C41.9937 104.458 43.9722 103.248 43.9677 102.842C43.9665 102.734 43.4667 102.363 42.8569 102.018C42.1405 101.613 41.5409 100.964 41.1618 100.183C39.9746 97.7356 39.8566 95.857 39.8347 79.0646C39.819 66.9999 39.7249 62.8091 39.4495 61.8794L39.0854 60.6501L37.8544 60.8328C35.7208 61.15 34.8761 59.5047 36.6288 58.4463C38.9412 57.0495 41.2062 58.2367 42.1493 61.3395C42.6366 62.9432 42.6793 63.9618 42.6052 72.2048L42.5234 81.3007L44.1732 80.7373C46.7262 79.8658 50.2964 79.347 53.7397 79.347H56.8778L56.6987 77.582C56.4133 74.7671 55.976 69.3882 55.6564 64.763C55.3431 60.2288 54.8841 58.139 53.9402 56.9504C53.2639 56.0984 49.5862 54.1984 48.707 54.2464C48.3752 54.2645 47.6011 54.4588 46.9871 54.6779ZM52.2376 83.6054C49.7237 83.761 47.9182 84.0493 46.1081 84.5839C44.6969 85.0007 43.3176 85.4057 43.0434 85.4836C42.74 85.57 42.5445 85.9016 42.5445 86.3291C42.5445 86.8092 42.6688 86.9851 42.9356 86.8835C45.8113 85.7906 50.7078 84.8428 54.9899 84.5508C57.6079 84.3721 57.8536 84.3071 57.727 83.8276C57.5728 83.2433 57.8784 83.2557 52.2376 83.6054ZM104.659 84.0772C104.367 84.8191 104.069 87.9204 103.731 93.7495L103.575 96.4323L104.144 95.3027C104.458 94.6814 105.112 93.6828 105.597 93.0839L106.481 91.9949L106.34 88.7066C106.212 85.7389 105.666 83.3006 105.13 83.3006C105.039 83.3006 104.828 83.6503 104.659 84.0772ZM52.395 88.9729C49.481 89.2833 47.4988 89.6911 44.7539 90.5451C42.3877 91.2813 42.3962 91.27 42.7258 93.2443C42.8971 94.2713 42.9157 94.2849 43.6492 93.9119C44.0609 93.7026 45.488 93.1731 46.8209 92.7354C49.099 91.9873 49.5429 91.9387 54.2332 91.9266L59.2224 91.9139L59.1234 90.6431C59.069 89.9441 58.9407 89.2921 58.8383 89.1941C58.4911 88.8617 54.6714 88.7304 52.395 88.9729ZM46.684 103.898C46.4465 104.64 44.8298 106.008 42.9521 107.058C41.5943 107.817 41.4032 108.033 41.3973 108.814C41.3936 109.304 41.0591 110.468 40.654 111.4C39.6998 113.594 39.2032 115.091 38.9802 116.444C38.6142 118.665 36.5729 119.547 34.7164 118.287C33.5122 117.469 32.2789 115.699 32.0836 114.507C31.9944 113.963 31.8204 113.518 31.6967 113.518C31.1496 113.518 29.7187 114.547 29.717 114.942C29.7145 115.577 31.0259 120.001 32.1834 123.26C33.8763 128.028 37.9596 135.985 38.3733 135.322C38.9215 134.444 43.8034 119.644 44.527 116.667C45.0048 114.702 45.9077 110.997 46.5338 108.434C47.1598 105.872 47.673 103.68 47.6741 103.563C47.6784 103.103 46.8485 103.384 46.684 103.898ZM24.6549 116.931C23.569 117.434 22.8731 117.93 22.8731 118.203C22.8731 119.022 20.3156 129.684 18.8761 134.866C18.0953 137.677 17.4564 140.12 17.4564 140.295C17.4564 140.528 17.6688 140.533 18.2404 140.313C19.121 139.976 23.2637 139.879 24.2031 140.174C24.7299 140.34 24.8705 140.2 25.2231 139.156C25.596 138.051 25.5866 137.883 25.1162 137.239C23.7954 135.43 23.3258 130.367 24.1945 127.3C24.7008 125.513 26.1867 123.58 27.826 122.577L28.7711 121.998L27.901 119.029C27.4223 117.395 26.8972 116.07 26.7338 116.083C26.5705 116.097 25.6351 116.479 24.6549 116.931ZM76.6093 122.1C74.1395 123.166 68.2469 131.358 67.9912 134.081C67.8033 136.08 68.6178 137.059 71.8745 138.752C73.9553 139.834 74.8063 140.128 75.7936 140.109C77.4868 140.075 79.2646 139.253 80.3904 137.982C81.839 136.348 81.6166 134.817 79.5811 132.408L78.4336 131.051L79.1625 128.765C79.5779 127.462 79.8915 125.808 79.8915 124.918C79.8915 123.57 79.7781 123.246 79.0582 122.533C78.1302 121.614 77.8508 121.564 76.6093 122.1ZM54.0907 136.044C51.1115 141.397 48.6417 145.92 48.6024 146.097C48.4564 146.752 57.1674 152.771 61.2106 154.809L62.9137 155.667L65.7008 155.016C67.2337 154.657 68.4878 154.326 68.4878 154.279C68.4878 154.232 68.0559 153.525 67.5279 152.706C66.2707 150.757 64.1459 146.549 63.0329 143.804C60.9269 138.61 59.951 134.464 59.6856 129.587L59.5074 126.313L54.0907 136.044ZM30.9481 131.379C30.6214 132.35 29.7068 134.948 28.9156 137.153L27.4771 141.161L28.882 142.054C30.4874 143.074 32.7171 145.418 33.3693 146.77C33.6131 147.275 33.8848 147.687 33.9732 147.686C34.0618 147.685 34.8059 145.728 35.6267 143.336L37.1192 138.988L35.2883 136.088C34.2814 134.493 33.0965 132.388 32.6555 131.409C32.2144 130.43 31.7834 129.626 31.6979 129.622C31.6123 129.618 31.2748 130.409 30.9481 131.379ZM46.5708 149.56C46.1341 150.51 46.2398 150.594 47.08 149.967C47.4589 149.683 47.6698 149.318 47.5578 149.139C47.2408 148.631 46.9392 148.759 46.5708 149.56ZM46.7444 153.355C43.5317 155.265 43.3524 155.422 42.5205 157.054C42.0427 157.992 41.7203 158.827 41.8041 158.91C41.9258 159.03 55.0546 156.173 56.4598 155.72C56.7777 155.618 50.7229 151.358 50.2625 151.36C50.1727 151.361 48.5896 152.258 46.7444 153.355ZM6.62287 157.311C4.97789 158.047 3.30126 159.665 2.88332 160.92C2.59908 161.773 2.62417 161.952 3.07605 162.279C3.62656 162.678 8.10564 162.803 10.1044 162.476L11.1627 162.303L10.3137 161.08C9.84641 160.407 9.19212 159.152 8.85942 158.291C8.52643 157.43 8.17577 156.728 8.07998 156.731C7.98419 156.734 7.32848 156.996 6.62287 157.311Z"
        fill="white" />
</svg>