<svg viewBox="0 0 24 25" fill="none" xmlns="http://www.w3.org/2000/svg">
<path d="M10.4302 16.0901C10.4302 15.3301 11.0402 15.4601 11.8002 15.4601H12.2002C12.9602 15.4601 13.5702 15.3301 13.5702 16.0901" stroke="black" stroke-width="2" stroke-linecap="round" stroke-linejoin="round"/>
<path d="M12 15.46V18.83" stroke="black" stroke-width="2" stroke-linecap="round" stroke-linejoin="round"/>
<path d="M8.37012 11.5698V12.5398" stroke="black" stroke-width="2" stroke-linecap="round" stroke-linejoin="round"/>
<path d="M15.6299 11.5698V12.5398" stroke="black" stroke-width="2" stroke-linecap="round" stroke-linejoin="round"/>
<path d="M20.5799 14.4702L15.9399 16.0302" stroke="black" stroke-width="2" stroke-linecap="round" stroke-linejoin="round"/>
<path d="M19.8499 17.52L15.9399 18.4" stroke="black" stroke-width="2" stroke-linecap="round" stroke-linejoin="round"/>
<path d="M3.41016 14.4702L8.06016 16.0302" stroke="black" stroke-width="2" stroke-linecap="round" stroke-linejoin="round"/>
<path d="M4.1499 17.52L8.0599 18.4" stroke="black" stroke-width="2" stroke-linecap="round" stroke-linejoin="round"/>
<path d="M7.77992 5.32006C5.83992 4.15006 2.83992 2.59006 1.84992 3.50006C0.519918 4.73006 3.39992 10.0301 3.99992 11.0101C4.17686 9.84334 4.60691 8.72945 5.25989 7.74651C5.91288 6.76358 6.77299 5.9354 7.77992 5.32006Z" stroke="black" stroke-width="2" stroke-linecap="round" stroke-linejoin="round"/>
<path d="M20.0502 11.0101C20.6002 10.0101 23.4802 4.73006 22.1502 3.50006C21.1502 2.59006 18.1502 4.15006 16.2202 5.32006C17.2364 5.93002 18.1062 6.75583 18.7681 7.73907C19.4299 8.72232 19.8676 9.83897 20.0502 11.0101Z" stroke="black" stroke-width="2" stroke-linecap="round" stroke-linejoin="round"/>
<path d="M15 21.7701H9C7.3 21.7701 5.79 20.4101 4.74 18.6301C3.5 16.5001 3.15 15.5001 3.6 13.0201L3.88 11.5001C4.0764 9.48349 5.01696 7.61231 6.51823 6.25156C8.01949 4.8908 9.97381 4.13806 12 4.14014C14.0262 4.13806 15.9805 4.8908 17.4818 6.25156C18.983 7.61231 19.9236 9.48349 20.12 11.5001L20.4 13.0301C20.85 15.5001 20.5 16.4701 19.23 18.6401C18.18 20.4101 16.67 21.7701 15 21.7701Z" stroke="black" stroke-width="2" stroke-linecap="round" stroke-linejoin="round"/>
</svg>
