<svg width="24" height="24" viewBox="0 0 24 24" fill="none" xmlns="http://www.w3.org/2000/svg">
    <path
        d="M21.39 9.11996C19.67 10.52 16.12 11.48 12 11.48C7.88 11.48 4.33 10.48 2.61 9.11996C2.29461 8.90415 2.03133 8.62072 1.83931 8.29031C1.64729 7.9599 1.53137 7.59083 1.5 7.20996V11C1.5 13.36 6.2 15.27 12 15.27C17.8 15.27 22.5 13.38 22.5 11V7.20996C22.4686 7.59083 22.3527 7.9599 22.1607 8.29031C21.9687 8.62072 21.7054 8.90415 21.39 9.11996Z"
        stroke="#818181" stroke-width="2" stroke-linecap="round" stroke-linejoin="round" />
    <path
        d="M12 2.94043C6.2 2.94043 1.5 4.85043 1.5 7.21043C1.53137 7.59129 1.64729 7.96037 1.83931 8.29078C2.03133 8.62119 2.29461 8.90462 2.61 9.12043C4.33 7.71043 7.88 6.75043 12 6.75043C16.12 6.75043 19.67 7.75043 21.39 9.12043C21.7054 8.90462 21.9687 8.62119 22.1607 8.29078C22.3527 7.96037 22.4686 7.59129 22.5 7.21043C22.5 4.85043 17.8 2.94043 12 2.94043Z"
        stroke="#818181" stroke-width="2" stroke-linecap="round" stroke-linejoin="round" />
    <path d="M12 13.7695V17.7895" stroke="#818181" stroke-width="2" stroke-linecap="round" stroke-linejoin="round" />
    <path
        d="M12.0001 21.0603C12.8893 21.0603 13.6101 20.326 13.6101 19.4203C13.6101 18.5145 12.8893 17.7803 12.0001 17.7803C11.111 17.7803 10.3901 18.5145 10.3901 19.4203C10.3901 20.326 11.111 21.0603 12.0001 21.0603Z"
        stroke="#818181" stroke-width="2" stroke-linecap="round" stroke-linejoin="round" />
</svg>