<svg viewBox="0 0 24 25" fill="none" xmlns="http://www.w3.org/2000/svg">
<path d="M22.4599 17.6698L21.1899 10.9798C21.0131 10.0445 20.5492 9.18744 19.8628 8.52791C19.1764 7.86839 18.3015 7.43912 17.3599 7.2998C18.0722 8.25431 18.5112 9.38473 18.6299 10.5698L19.0899 15.1198C19.1568 15.7483 19.0946 16.3838 18.9072 16.9873C18.7198 17.5909 18.411 18.1498 17.9999 18.6298C18.1325 19.2252 18.4962 19.7436 19.011 20.0708C19.5257 20.3981 20.1495 20.5074 20.7449 20.3748C21.3403 20.2422 21.8586 19.8785 22.1859 19.3637C22.5131 18.8489 22.6225 18.2252 22.4899 17.6298L22.4599 17.6698Z" stroke="black" stroke-width="2" stroke-linecap="round" stroke-linejoin="round"/>
<path d="M4.90988 15.1198L5.36988 10.5698C5.48852 9.38473 5.92755 8.25431 6.63988 7.2998C5.69821 7.43912 4.82336 7.86839 4.13695 8.52791C3.45054 9.18744 2.98668 10.0445 2.80988 10.9798L1.53988 17.6698C1.40727 18.2652 1.51662 18.8889 1.84387 19.4037C2.17112 19.9185 2.68947 20.2822 3.28488 20.4148C3.88029 20.5474 4.50399 20.4381 5.01878 20.1108C5.53357 19.7836 5.89727 19.2652 6.02988 18.6698C5.60823 18.1875 5.29103 17.623 5.09827 17.012C4.90551 16.4011 4.84137 15.7568 4.90988 15.1198Z" stroke="black" stroke-width="2" stroke-linecap="round" stroke-linejoin="round"/>
<path d="M14.4199 20.2403H9.57992C8.92687 20.2434 8.28045 20.1094 7.68239 19.8471C7.08433 19.5848 6.54794 19.2 6.10785 18.7175C5.66776 18.235 5.33376 17.6655 5.12742 17.0459C4.92108 16.4263 4.84699 15.7704 4.90992 15.1203L5.36992 10.5703C5.52932 8.92419 6.2973 7.39678 7.52356 6.28704C8.74982 5.17731 10.3461 4.56514 11.9999 4.57035C13.6538 4.56514 15.25 5.17731 16.4763 6.28704C17.7025 7.39678 18.4705 8.92419 18.6299 10.5703L19.0899 15.1203C19.1529 15.7704 19.0788 16.4263 18.8724 17.0459C18.6661 17.6655 18.3321 18.235 17.892 18.7175C17.4519 19.2 16.9155 19.5848 16.3175 19.8471C15.7194 20.1094 15.073 20.2434 14.4199 20.2403Z" stroke="black" stroke-width="2" stroke-linecap="round" stroke-linejoin="round"/>
<path d="M11.9998 16.6403L10.5698 15.0303C10.5698 14.6988 10.7015 14.3808 10.9359 14.1464C11.1704 13.912 11.4883 13.7803 11.8198 13.7803H12.1798C12.5113 13.7803 12.8293 13.912 13.0637 14.1464C13.2981 14.3808 13.4298 14.6988 13.4298 15.0303L11.9998 16.6403Z" stroke="black" stroke-width="2" stroke-linecap="round" stroke-linejoin="round"/>
<path d="M12 16.6396V20.2396" stroke="black" stroke-width="2" stroke-linecap="round" stroke-linejoin="round"/>
<path d="M8.8501 10.6396V11.4796" stroke="black" stroke-width="2" stroke-linecap="round" stroke-linejoin="round"/>
<path d="M15.1499 10.6396V11.4796" stroke="black" stroke-width="2" stroke-linecap="round" stroke-linejoin="round"/>
</svg>
