<svg width="18" height="16" viewBox="0 0 18 16" fill="none" xmlns="http://www.w3.org/2000/svg">
<path d="M16.5219 1.47809C14.5511 -0.492696 11.3676 -0.492696 9.39677 1.47809L9.01777 1.87604L8.61982 1.47809C6.64904 -0.492696 3.46546 -0.492696 1.49468 1.47809C-0.495056 3.44887 -0.495056 6.63245 1.47573 8.60323L7.99448 15.103C8.56297 15.6526 9.45362 15.6526 10.0221 15.103L16.5219 8.60323C18.4927 6.63245 18.4927 3.44887 16.5219 1.47809ZM14.9112 5.70391H13.7363V6.8788C13.7363 7.27674 13.4141 7.59889 13.0162 7.59889C12.6182 7.59889 12.2961 7.27674 12.2961 6.8788V5.70391H11.1212C10.7233 5.70391 10.4011 5.38176 10.4011 4.98381C10.4011 4.58586 10.7233 4.26372 11.1212 4.26372H12.2961V3.08883C12.2961 2.69088 12.6182 2.36873 13.0162 2.36873C13.4141 2.36873 13.7363 2.69088 13.7363 3.08883V4.26372H14.9112C15.3091 4.26372 15.6313 4.58586 15.6313 4.98381C15.6502 5.38176 15.3091 5.70391 14.9112 5.70391Z" fill="#333333"/>
</svg>
