<svg width="21" height="21" viewBox="0 0 21 21" fill="none" xmlns="http://www.w3.org/2000/svg">
<path d="M17.4812 4.2964C15.6564 2.4969 12.7086 2.4969 10.8838 4.2964L10.5329 4.65975L10.1644 4.2964C8.33962 2.4969 5.39187 2.4969 3.56707 4.2964C1.72472 6.09589 1.72472 9.00276 3.54952 10.8022L9.5854 16.7371C10.1118 17.2389 10.9365 17.2389 11.4628 16.7371L17.4812 10.8022C19.306 9.00276 19.306 6.09589 17.4812 4.2964ZM15.9897 8.15492H14.9019V9.22769C14.9019 9.59105 14.6036 9.8852 14.2351 9.8852C13.8667 9.8852 13.5684 9.59105 13.5684 9.22769V8.15492H12.4805C12.112 8.15492 11.8138 7.86077 11.8138 7.49741C11.8138 7.13405 12.112 6.83991 12.4805 6.83991H13.5684V5.76713C13.5684 5.40377 13.8667 5.10963 14.2351 5.10963C14.6036 5.10963 14.9019 5.40377 14.9019 5.76713V6.83991H15.9897C16.3582 6.83991 16.6565 7.13405 16.6565 7.49741C16.674 7.86077 16.3582 8.15492 15.9897 8.15492Z" fill="#333333"/>
</svg>
