<svg width="25" height="25" viewBox="0 0 25 25" fill="none" xmlns="http://www.w3.org/2000/svg">
<path d="M19.25 21.5H14.6131C15.392 20.8045 16.1266 20.0608 16.8125 19.2734C19.3859 16.3138 20.75 13.1938 20.75 10.25C20.75 8.06196 19.8808 5.96354 18.3336 4.41637C16.7865 2.86919 14.688 2 12.5 2C10.312 2 8.21354 2.86919 6.66637 4.41637C5.11919 5.96354 4.25 8.06196 4.25 10.25C4.25 13.1938 5.61031 16.3138 8.1875 19.2734C8.87338 20.0608 9.60795 20.8045 10.3869 21.5H5.75C5.55109 21.5 5.36032 21.579 5.21967 21.7197C5.07902 21.8603 5 22.0511 5 22.25C5 22.4489 5.07902 22.6397 5.21967 22.7803C5.36032 22.921 5.55109 23 5.75 23H19.25C19.4489 23 19.6397 22.921 19.7803 22.7803C19.921 22.6397 20 22.4489 20 22.25C20 22.0511 19.921 21.8603 19.7803 21.7197C19.6397 21.579 19.4489 21.5 19.25 21.5ZM12.5 7.25C13.0933 7.25 13.6734 7.42595 14.1667 7.75559C14.6601 8.08524 15.0446 8.55377 15.2716 9.10195C15.4987 9.65013 15.5581 10.2533 15.4424 10.8353C15.3266 11.4172 15.0409 11.9518 14.6213 12.3713C14.2018 12.7909 13.6672 13.0766 13.0853 13.1924C12.5033 13.3081 11.9001 13.2487 11.3519 13.0216C10.8038 12.7946 10.3352 12.4101 10.0056 11.9167C9.67595 11.4234 9.5 10.8433 9.5 10.25C9.5 9.45435 9.81607 8.69129 10.3787 8.12868C10.9413 7.56607 11.7044 7.25 12.5 7.25Z" fill="#343330"/>
</svg>
