<svg width="25" height="25" viewBox="0 0 25 25" fill="none" xmlns="http://www.w3.org/2000/svg">
<path d="M23 10.625C23 11.1442 22.846 11.6517 22.5576 12.0834C22.2692 12.5151 21.8592 12.8515 21.3795 13.0502C20.8999 13.2489 20.3721 13.3008 19.8629 13.1996C19.3537 13.0983 18.886 12.8483 18.5188 12.4812C18.1517 12.114 17.9017 11.6463 17.8004 11.1371C17.6992 10.6279 17.7511 10.1001 17.9498 9.62046C18.1485 9.1408 18.485 8.73083 18.9166 8.44239C19.3483 8.15395 19.8558 8 20.375 8C21.0712 8 21.7389 8.27656 22.2312 8.76885C22.7234 9.26113 23 9.92881 23 10.625ZM7.25 10.625C7.25 10.1058 7.09605 9.59831 6.80761 9.16663C6.51917 8.73495 6.1092 8.3985 5.62955 8.19982C5.14989 8.00114 4.62209 7.94915 4.11289 8.05044C3.60369 8.15173 3.13596 8.40173 2.76885 8.76885C2.40173 9.13596 2.15173 9.60369 2.05044 10.1129C1.94915 10.6221 2.00114 11.1499 2.19982 11.6295C2.3985 12.1092 2.73495 12.5192 3.16663 12.8076C3.59831 13.096 4.10583 13.25 4.625 13.25C5.32119 13.25 5.98887 12.9734 6.48116 12.4812C6.97344 11.9889 7.25 11.3212 7.25 10.625ZM9.125 8.75C9.64418 8.75 10.1517 8.59605 10.5834 8.30761C11.0151 8.01917 11.3515 7.6092 11.5502 7.12954C11.7489 6.64989 11.8008 6.12209 11.6996 5.61289C11.5983 5.10369 11.3483 4.63596 10.9812 4.26885C10.614 3.90173 10.1463 3.65173 9.63711 3.55044C9.12791 3.44915 8.60011 3.50114 8.12046 3.69982C7.6408 3.8985 7.23083 4.23495 6.94239 4.66663C6.65395 5.09831 6.5 5.60583 6.5 6.125C6.5 6.82119 6.77656 7.48887 7.26885 7.98116C7.76113 8.47344 8.42881 8.75 9.125 8.75ZM15.875 8.75C16.3942 8.75 16.9017 8.59605 17.3334 8.30761C17.7651 8.01917 18.1015 7.6092 18.3002 7.12954C18.4989 6.64989 18.5508 6.12209 18.4496 5.61289C18.3483 5.10369 18.0983 4.63596 17.7312 4.26885C17.364 3.90173 16.8963 3.65173 16.3871 3.55044C15.8779 3.44915 15.3501 3.50114 14.8705 3.69982C14.3908 3.8985 13.9808 4.23495 13.6924 4.66663C13.404 5.09831 13.25 5.60583 13.25 6.125C13.25 6.82119 13.5266 7.48887 14.0188 7.98116C14.5111 8.47344 15.1788 8.75 15.875 8.75ZM18.0425 14.4556C17.6615 14.2455 17.3258 13.9622 17.0544 13.6222C16.783 13.2821 16.5813 12.8918 16.4609 12.4738C16.2116 11.6162 15.6906 10.8627 14.9763 10.3265C14.2621 9.79039 13.3931 9.50053 12.5 9.50053C11.6069 9.50053 10.7379 9.79039 10.0237 10.3265C9.3094 10.8627 8.78843 11.6162 8.53906 12.4738C8.29818 13.315 7.73345 14.0264 6.96875 14.4519C6.23518 14.8488 5.65487 15.479 5.31962 16.2427C4.98437 17.0065 4.91331 17.8602 5.11768 18.6688C5.32205 19.4775 5.79018 20.1949 6.44804 20.7077C7.10589 21.2205 7.91592 21.4993 8.75 21.5C9.24984 21.5014 9.74479 21.4016 10.205 21.2066C11.6722 20.6015 13.3193 20.6015 14.7866 21.2066C15.6753 21.5931 16.6791 21.6205 17.5876 21.2832C18.4961 20.9458 19.2387 20.2698 19.6598 19.3969C20.0808 18.5241 20.1476 17.5221 19.8461 16.6011C19.5446 15.68 18.8982 14.9115 18.0425 14.4566V14.4556Z" fill="#343330"/>
</svg>
