<svg width="35" height="38" viewBox="0 0 35 38" fill="none" xmlns="http://www.w3.org/2000/svg">
<path fill-rule="evenodd" clip-rule="evenodd" d="M18.9293 7.02787C18.0085 9.94195 15.766 11.8316 13.9203 11.2484C12.0748 10.6653 11.325 7.8302 12.2458 4.91612C13.1665 2.00203 15.4091 0.112417 17.2547 0.695561C19.1003 1.27872 19.85 4.11378 18.9293 7.02787ZM22.2442 19.8031C22.4821 21.8081 23.4592 23.8558 24.9302 25.1369C27.1626 27.0811 28.1868 30.0734 27.2984 32.885C26.0708 36.7704 21.6557 38.8397 17.4373 37.5069C16.3937 37.1771 15.4599 36.6701 14.6639 36.0348C13.151 34.8271 11.0277 34.1562 9.09554 34.2754C8.07907 34.338 7.02345 34.2164 5.97986 33.8867C1.76136 32.5538 -0.663166 28.3234 0.564483 24.438C1.45286 21.6264 4.01031 19.7658 6.95454 19.4573C8.89463 19.2539 10.8709 18.1393 12.2176 16.6351C13.8783 14.7803 16.2198 13.9094 18.3772 14.591C20.5347 15.2727 21.9506 17.3309 22.2442 19.8031ZM23.9456 14.416C25.7912 14.9992 28.0337 13.1096 28.9545 10.1955C29.8752 7.28141 29.1255 4.44634 27.2799 3.86318C25.4343 3.28002 23.1917 5.16966 22.271 8.08374C21.3502 10.9978 22.0999 13.8329 23.9456 14.416ZM34.5302 21.6292C33.6094 24.5434 31.3669 26.4329 29.5213 25.8498C27.6757 25.2666 26.926 22.4317 27.8467 19.5175C28.7675 16.6034 31.01 14.7138 32.8556 15.2969C34.7013 15.8801 35.451 18.7151 34.5302 21.6292ZM2.78738 17.4028C4.63297 17.9859 6.87551 16.0964 7.79629 13.1822C8.71704 10.2681 7.96731 7.43307 6.12172 6.84993C4.27612 6.26678 2.03356 8.1564 1.11281 11.0705C0.192028 13.9847 0.941783 16.8196 2.78738 17.4028Z" fill="black" fill-opacity="0.25"/>
</svg>
