<svg width="25" height="21" viewBox="0 0 25 21" fill="none" xmlns="http://www.w3.org/2000/svg">
<rect x="0.738281" y="0.5" width="23.7616" height="20" rx="8.5" stroke="white"/>
<path d="M17.952 6.04793C16.5547 4.65069 14.2976 4.65069 12.9004 6.04793L12.6317 6.33007L12.3496 6.04793C10.9523 4.65069 8.69522 4.65069 7.29798 6.04793C5.8873 7.44518 5.8873 9.70227 7.28454 11.0995L11.9062 15.7077C12.3092 16.0973 12.9407 16.0973 13.3437 15.7077L17.952 11.0995C19.3492 9.70227 19.3492 7.44518 17.952 6.04793ZM16.81 9.04395H15.977V9.87692C15.977 10.1591 15.7486 10.3875 15.4665 10.3875C15.1843 10.3875 14.956 10.1591 14.956 9.87692V9.04395H14.123C13.8408 9.04395 13.6124 8.81555 13.6124 8.53342C13.6124 8.25128 13.8408 8.02289 14.123 8.02289H14.956V7.18991C14.956 6.90778 15.1843 6.67938 15.4665 6.67938C15.7486 6.67938 15.977 6.90778 15.977 7.18991V8.02289H16.81C17.0921 8.02289 17.3205 8.25128 17.3205 8.53342C17.334 8.81555 17.0921 9.04395 16.81 9.04395Z" fill="white"/>
</svg>
