<svg width="220" height="26" viewBox="0 0 220 26" fill="none" xmlns="http://www.w3.org/2000/svg">
<g clip-path="url(#clip0_1542_3151)">
<g clip-path="url(#clip1_1542_3151)">
<path d="M2.25098 1.48633H4.55244L16.9223 10.3094V1.48633H24.9105V24.1413H21.8619L10.2116 16.3559V24.1413H2.25098V1.48633Z" fill="black"/>
<path d="M27.124 24.1413L38.3869 2.63482C38.6606 2.11519 39.0864 1.71085 39.6645 1.42182C40.2425 1.1328 40.8437 0.988281 41.4678 0.988281C42.0244 0.988281 42.5701 1.11588 43.1052 1.37109C43.6402 1.6263 44.0537 2.01833 44.3458 2.54719L56.4343 24.1413H44.927L44.0368 21.8998H37.9073L37.1416 24.1413H27.124ZM38.5991 17.403H43.1836L41.0112 11.2734L38.5991 17.403Z" fill="black"/>
<path d="M62.6651 16.3223C63.5261 16.3223 64.244 16.5068 64.819 16.8757C65.3971 17.2447 65.8306 17.7228 66.1196 18.3101C66.4056 18.8974 66.5486 19.5216 66.5486 20.1826C66.5486 20.9114 66.3748 21.6186 66.0274 22.3042C65.6769 22.9899 65.1511 23.5557 64.45 24.0015C63.7521 24.4443 62.8727 24.6657 61.8119 24.6657C60.914 24.6657 60.1792 24.4858 59.6073 24.126C59.0354 23.7663 58.611 23.2943 58.3343 22.7101C58.0607 22.1228 57.9238 21.4986 57.9238 20.8376C57.9238 20.1273 58.1129 19.4262 58.4911 18.7344C58.8693 18.0457 59.4136 17.4722 60.1238 17.0141C60.8341 16.5529 61.6812 16.3223 62.6651 16.3223Z" fill="black"/>
<path d="M69.376 24.1398V1.48484L70.2615 1.42027C70.8519 1.37722 71.6267 1.32188 72.586 1.25423C73.5484 1.18966 74.5985 1.12663 75.7361 1.06513C76.8769 1.00364 78.0069 0.951367 79.1261 0.90832C80.2484 0.865273 81.2492 0.84375 82.1286 0.84375C83.9642 0.84375 85.5201 1.08358 86.7961 1.56325C88.0721 2.03984 89.1037 2.67016 89.8909 3.45423C90.6749 4.24137 91.2499 5.10692 91.6158 6.05088C91.9786 6.99791 92.16 7.9434 92.16 8.88735C92.16 10.5447 91.7388 11.9667 90.8963 13.1536C90.0538 14.3405 88.9807 15.3213 87.677 16.0962L93.8343 24.1398H82.6267L78.6372 17.5721V24.1398H69.376ZM78.5819 13.4442C80.4175 12.7616 81.735 12.0221 82.5345 11.2257C83.3339 10.4263 83.7336 9.56688 83.7336 8.64752C83.7336 7.88191 83.5907 7.35766 83.3047 7.07478C83.0218 6.78882 82.6682 6.64585 82.2439 6.64585C81.9672 6.64585 81.6828 6.69197 81.3907 6.78421C81.0985 6.87338 80.7911 6.98407 80.4682 7.11629L78.5819 7.89574V13.4442Z" fill="black"/>
<path d="M95.4673 1.48633H104.419V14.8478C104.419 15.6533 104.613 16.3283 105.001 16.8725C105.388 17.4167 106.017 17.6888 106.887 17.6888C107.757 17.6888 108.386 17.4075 108.773 16.8448C109.161 16.2821 109.354 15.598 109.354 14.7924V1.48633H117.2V15.106C117.2 18.3591 116.303 20.7713 114.511 22.3425C112.721 23.9106 110.132 24.6947 106.744 24.6947C103.057 24.6947 100.256 23.9106 98.3407 22.3425C96.4251 20.7713 95.4673 18.3591 95.4673 15.106V1.48633Z" fill="black"/>
<path d="M138.766 23.4756C136.752 24.2874 134.572 24.6932 132.226 24.6932C130.618 24.6932 129.059 24.4472 127.549 23.9553C126.043 23.4633 124.691 22.7454 123.495 21.8014C122.299 20.8544 121.347 19.6906 120.64 18.31C119.936 16.9294 119.584 15.3505 119.584 13.5733C119.584 11.6885 119.918 9.96814 120.585 8.4123C121.252 6.85647 122.201 5.51433 123.431 4.38589C124.66 3.25437 126.116 2.38114 127.798 1.76618C129.483 1.15123 131.347 0.84375 133.388 0.84375C133.766 0.84375 134.248 0.863736 134.832 0.903708C135.413 0.940605 136.016 1.00825 136.64 1.10664C137.264 1.20504 137.827 1.34955 138.328 1.54019V8.85968C137.704 8.62293 137.066 8.50455 136.414 8.50455C135.439 8.50455 134.54 8.74438 133.716 9.22404C132.892 9.70063 132.234 10.3417 131.742 11.1473C131.253 11.9498 131.008 12.8431 131.008 13.827C131.008 14.8017 131.197 15.5627 131.576 16.11C131.954 16.6604 132.512 16.9356 133.25 16.9356C133.542 16.9356 133.891 16.8879 134.297 16.7926C134.703 16.6973 135.259 16.4605 135.966 16.0823C136.67 15.7041 137.604 15.0892 138.766 14.2375V23.4756Z" fill="black"/>
<path d="M155.651 1.48633H164.488V24.1413H155.651V15.7702L150.942 16.1853V24.1413H142.114V1.48633H150.942V9.67291L155.651 9.2901V1.48633Z" fill="black"/>
<path d="M176.959 1.48633V8.45069L182.425 1.48633H191.631L184.311 11.0335L192.765 24.1413H182.425L177.683 16.1253L177.158 17.0478V24.1413H167.979V1.48633H176.959Z" fill="black"/>
<path d="M201.505 15.3044L194.596 1.48633H204.711L206.966 6.12616L209.295 1.48633H217.749L210.697 15.3044V24.1413H201.505V15.3044Z" fill="black"/>
</g>
</g>
<defs>
<clipPath id="clip0_1542_3151">
<rect width="220" height="24.9057" fill="white" transform="translate(0 0.546875)"/>
</clipPath>
<clipPath id="clip1_1542_3151">
<rect width="222.767" height="24.9057" fill="white" transform="translate(-5.07324 0.546875)"/>
</clipPath>
</defs>
</svg>
