<svg width="1336" height="154" viewBox="0 0 1336 154" fill="none" xmlns="http://www.w3.org/2000/svg">
<g clip-path="url(#clip0_1392_6130)">
<path d="M1.69727 5.81836H15.9538L92.5791 60.4732V5.81836H142.063V146.155H123.178L51.0095 97.9287V146.155H1.69727V5.81836Z" fill="black"/>
<path d="M155.773 146.151L225.542 12.9281C227.237 9.70917 229.875 7.20452 233.456 5.41412C237.037 3.62372 240.76 2.72852 244.627 2.72852C248.074 2.72852 251.455 3.51896 254.769 5.09984C258.083 6.68073 260.645 9.1092 262.455 12.3853L337.337 146.151H266.054L260.54 132.266H222.571L217.828 146.151H155.773ZM226.856 104.41H255.255L241.798 66.4401L226.856 104.41Z" fill="black"/>
<path d="M375.936 97.7207C381.269 97.7207 385.716 98.8635 389.278 101.149C392.859 103.435 395.544 106.397 397.335 110.034C399.106 113.672 399.992 117.539 399.992 121.634C399.992 126.148 398.916 130.529 396.763 134.776C394.592 139.024 391.335 142.528 386.992 145.29C382.669 148.033 377.221 149.404 370.65 149.404C365.088 149.404 360.536 148.29 356.994 146.062C353.451 143.833 350.822 140.909 349.108 137.29C347.413 133.653 346.565 129.786 346.565 125.691C346.565 121.291 347.737 116.948 350.08 112.663C352.422 108.396 355.794 104.844 360.193 102.006C364.593 99.1492 369.841 97.7207 375.936 97.7207Z" fill="black"/>
<path d="M417.506 146.152V5.81501L422.991 5.41503C426.648 5.14837 431.448 4.80553 437.391 4.3865C443.352 3.98652 449.857 3.59606 456.904 3.21512C463.971 2.83418 470.97 2.51039 477.903 2.24373C484.855 1.97708 491.055 1.84375 496.503 1.84375C507.873 1.84375 517.511 3.3294 525.416 6.3007C533.32 9.25296 539.71 13.1576 544.586 18.0145C549.443 22.8905 553.005 28.2522 555.271 34.0995C557.519 39.9659 558.643 45.8228 558.643 51.6702C558.643 61.9364 556.033 70.7456 550.815 78.0976C545.596 85.4497 538.948 91.5257 530.873 96.3255L569.014 146.152H499.588L474.875 105.468V146.152H417.506ZM474.532 79.8976C485.903 75.6692 494.065 71.0884 499.017 66.1553C503.969 61.2031 506.445 55.8796 506.445 50.1846C506.445 45.4419 505.559 42.1944 503.788 40.4421C502.036 38.6708 499.845 37.7851 497.217 37.7851C495.503 37.7851 493.741 38.0708 491.931 38.6422C490.122 39.1945 488.217 39.8802 486.217 40.6992L474.532 45.5276V79.8976Z" fill="black"/>
<path d="M579.13 5.81836H634.585V88.5863C634.585 93.5766 635.785 97.7573 638.185 101.129C640.584 104.5 644.479 106.186 649.87 106.186C655.26 106.186 659.155 104.443 661.555 100.957C663.955 97.4716 665.155 93.2337 665.155 88.2434V5.81836H713.753V90.1862C713.753 110.338 708.201 125.28 697.096 135.013C686.011 144.727 669.974 149.584 648.984 149.584C626.147 149.584 608.795 144.727 596.929 135.013C585.063 125.28 579.13 110.338 579.13 90.1862V5.81836Z" fill="black"/>
<path d="M847.347 142.038C834.871 147.066 821.367 149.58 806.834 149.58C796.873 149.58 787.216 148.057 777.864 145.009C768.531 141.962 760.16 137.514 752.751 131.667C745.342 125.8 739.447 118.591 735.066 110.039C730.704 101.487 728.523 91.7066 728.523 80.6975C728.523 69.0219 730.59 58.3652 734.723 48.7275C738.856 39.0898 744.732 30.7759 752.351 23.7857C759.97 16.7764 768.988 11.3672 779.407 7.55779C789.845 3.74843 801.387 1.84375 814.034 1.84375C816.377 1.84375 819.358 1.96755 822.977 2.21516C826.576 2.44372 830.31 2.86275 834.176 3.47225C838.043 4.08175 841.528 4.97695 844.633 6.15785V51.4988C840.766 50.0322 836.814 49.2989 832.776 49.2989C826.738 49.2989 821.167 50.7845 816.063 53.7558C810.958 56.7081 806.882 60.6793 803.835 65.6696C800.806 70.6408 799.292 76.1739 799.292 82.2689C799.292 88.3067 800.463 93.0208 802.806 96.4112C805.149 99.8205 808.606 101.525 813.177 101.525C814.986 101.525 817.148 101.23 819.662 100.64C822.177 100.049 825.624 98.5825 830.005 96.2397C834.367 93.897 840.147 90.0876 847.347 84.8117V142.038Z" fill="black"/>
<path d="M951.941 5.81836H1006.68V146.155H951.941V94.3003L922.771 96.8716V146.155H868.088V5.81836H922.771V56.5305L951.941 54.1592V5.81836Z" fill="black"/>
<path d="M1083.94 5.81836V48.9594L1117.79 5.81836H1174.82L1129.48 64.9587L1181.85 146.155H1117.79L1088.42 96.5002L1085.16 102.214V146.155H1028.31V5.81836H1083.94Z" fill="black"/>
<path d="M1232.01 91.4147L1189.22 5.81836H1251.87L1265.84 34.56L1280.27 5.81836H1332.64L1288.96 91.4147V146.155H1232.01V91.4147Z" fill="black"/>
</g>
<defs>
<clipPath id="clip0_1392_6130">
<rect width="1336" height="154" fill="white"/>
</clipPath>
</defs>
</svg>
