<svg width="129" height="145" viewBox="0 0 129 145" fill="none" xmlns="http://www.w3.org/2000/svg">
<path fill-rule="evenodd" clip-rule="evenodd" d="M73.0258 0.223184C75.0802 0.930281 77.008 3.07924 77.008 4.66233C77.008 5.74619 76.6468 5.89728 76.4454 4.89738C76.2637 3.99348 75.0758 2.83336 73.5393 2.05913C72.4622 1.5166 72.1125 1.45669 70.7562 1.58252C69.851 1.66649 68.8502 1.93475 68.3529 2.22634C67.1948 2.90577 66.6999 2.71547 67.1875 1.77812C67.8878 0.431777 71.1262 -0.430742 73.0258 0.223184ZM57.0544 2.46718C57.9652 2.80208 58.1288 3.22407 57.7046 4.14506L57.3164 4.98713L57.225 4.3255C57.0055 2.73808 55.4718 4.1311 55.4718 5.91797C55.4718 6.99293 55.2645 7.51333 54.8359 7.51333C53.8934 7.51333 53.8266 4.98424 54.7302 3.50701C55.2393 2.67457 56.3127 2.19435 57.0544 2.46718ZM81.9106 6.05775C83.7956 7.24627 84.8963 9.41472 84.6788 11.5103C84.5489 12.7642 84.0037 14.0093 83.5851 14.0093C83.482 14.0093 83.4423 13.3101 83.497 12.4556C83.5829 11.1143 83.4987 10.6947 82.8809 9.38802C82.1499 7.84222 81.3238 6.82765 80.0328 5.8903L79.3069 5.36317L80.0459 5.35571C80.4596 5.35138 81.2804 5.6603 81.9106 6.05775ZM51.2386 10.4026C51.3214 10.5361 51.3265 10.8429 51.2493 11.0842C51.1723 11.3257 51.2539 11.9472 51.4305 12.4654C51.8182 13.6024 51.7132 14.2499 51.1406 14.2499C49.9574 14.2499 49.0473 11.9149 49.7909 10.7866C50.2078 10.1541 50.9601 9.95461 51.2386 10.4026ZM20.9897 13.0871C22.322 13.8197 24.0144 16.0512 24.0144 17.0754C24.0144 17.3865 23.7308 17.9023 23.3843 18.2216L22.7545 18.8021L23.2808 19.4673C24.0887 20.4889 26.4183 22.1391 27.7651 22.6443C29.1834 23.1763 29.4159 23.7963 28.1508 23.6726C26.7144 23.5324 24.7827 22.461 23.0717 20.8565C21.4729 19.3569 21.3708 19.3023 20.1619 19.3023C18.656 19.3023 17.8906 18.9404 15.6661 17.1767C13.8689 15.7516 12.9489 14.8574 11.9745 13.5883C11.2055 12.5867 11.4511 12.5961 12.7217 13.6166C15.6794 15.9925 19.6861 18.3931 20.0651 18.0163C20.1382 17.9434 19.9092 17.3699 19.5562 16.7417C18.6628 15.1526 18.4128 13.927 18.8542 13.3005C19.238 12.7558 20.2105 12.6586 20.9897 13.0871ZM21.2905 14.7912C21.7076 15.2211 22.2187 15.8979 22.4258 16.2949C22.7711 16.9565 22.7685 17.0417 22.3944 17.3174C21.7865 17.7652 21.6834 17.7129 20.8764 16.5468C19.4202 14.4423 19.7195 13.1723 21.2905 14.7912ZM87.0671 15.8055C88.0106 17.2373 86.7635 19.7835 85.119 19.7835C84.091 19.7835 83.7963 19.3769 84.6033 19.072C85.4159 18.7648 85.8887 17.9771 86.0912 16.5928C86.2952 15.2009 86.5391 15.0044 87.0671 15.8055ZM52.1168 17.7307C52.2683 17.8814 51.9994 20.1785 51.6181 21.9928C51.1755 24.098 49.5678 26.3639 46.022 29.8801C43.314 32.5653 42.6002 34.8733 43.6187 37.6505C43.9212 38.4755 44.4484 39.5836 44.7906 40.1129C45.1328 40.6425 45.6443 41.563 45.9277 42.1584C46.2108 42.7539 46.8782 43.62 47.4105 44.0832C47.9429 44.5463 48.586 45.104 48.8399 45.3227C49.0937 45.5414 49.5636 46.0076 49.8845 46.3589C50.7227 47.2772 51.5917 47.6581 53.4615 47.9268C57.7885 48.549 60.1595 47.8717 61.4698 45.6398C61.9777 44.7749 62.02 44.4686 61.9179 42.399C61.8557 41.1419 61.5191 38.9225 61.1697 37.4669C59.606 30.951 59.2922 29.205 59.1649 26.3083C59.0558 23.8317 59.0904 23.3485 59.3701 23.4414C59.555 23.5028 59.7353 23.9228 59.7706 24.3749C59.8057 24.827 59.9189 25.7381 60.022 26.3997C60.1863 27.453 60.2337 27.5279 60.4031 27.0012C60.8426 25.6354 61.1688 25.0981 61.6346 24.9737C62.4822 24.7473 66.797 24.8241 68.5666 25.0972C69.9843 25.3159 70.4163 25.2964 71.2192 24.9769C72.4549 24.4851 74.8372 24.4877 75.9874 24.9819C76.5657 25.2302 77.4705 25.3534 78.5204 25.3264C79.4186 25.3036 80.1545 25.3734 80.1555 25.4814C80.1564 25.5894 80.6498 25.7003 81.2521 25.7275C82.463 25.7821 84.0022 26.6622 84.8293 27.7728C85.2165 28.2927 85.3121 28.7876 85.3026 30.227C85.2925 31.7839 85.1945 32.1874 84.5842 33.1846C84.1953 33.8195 83.5296 34.5149 83.1047 34.7297L82.3318 35.1202L83.3603 36.0609C84.794 37.3728 89.0644 40.3497 90.3426 40.9283C90.9274 41.1932 91.7054 41.472 92.0713 41.5481C94.5942 42.0725 89.3638 45.359 84.7514 46.1472C79.2689 47.084 75.2031 45.621 71.2601 41.2925C70.1607 40.0857 69.5684 39.6017 69.3806 39.7569C69.0745 40.0092 67.8128 42.484 67.8128 42.8314C67.8128 42.9536 68.4231 43.116 69.1689 43.1927C72.8361 43.569 78.4599 47.8891 78.4599 50.3296C78.4599 50.8195 78.3876 50.7957 77.4484 49.9964C75.8615 48.6457 75.8543 48.99 77.439 50.4487C78.8432 51.7412 80.0388 53.6202 80.6327 55.4672C80.9705 56.5176 80.7955 56.8982 80.2886 56.2154C79.9716 55.7884 79.9454 55.8295 79.9561 56.738C79.9708 57.9881 79.5837 58.7111 78.7939 58.9084C78.2692 59.0393 78.1969 59.16 78.3249 59.6929C78.4926 60.3914 78.7104 65.7363 78.5712 65.7363C78.5231 65.7363 78.291 64.8459 78.0558 63.7577C77.6396 61.8316 77.6227 61.802 77.4216 62.6474C77.2478 63.3776 77.3289 63.7404 77.9295 64.9268C78.3225 65.7029 79.0462 67.3122 79.5382 68.5031C80.4064 70.6061 81.3388 72.6197 82.9356 75.8412C83.6651 77.3129 85.2158 79.861 87.9141 84.0213C88.5575 85.0137 89.5774 86.8629 90.1805 88.1303C91.4136 90.7232 91.5242 90.8463 94.268 92.6825C95.7148 93.6507 96.3103 94.2048 96.4874 94.7468C96.6205 95.1544 97.0829 95.9664 97.5149 96.5512C98.9781 98.532 101.881 103.002 103.161 105.246C103.861 106.474 104.753 107.928 105.143 108.478C105.628 109.162 105.802 109.632 105.694 109.971C105.607 110.243 104.725 111.144 103.734 111.972C101.93 113.481 101.745 113.712 102.147 113.958C102.265 114.031 102.433 114.371 102.52 114.714C102.606 115.057 102.927 115.735 103.233 116.22C103.539 116.706 104.312 118.077 104.951 119.268C105.589 120.459 106.451 121.904 106.865 122.479C107.279 123.054 107.827 123.866 108.081 124.283C108.335 124.701 108.941 125.583 109.427 126.245C109.912 126.907 110.684 127.959 111.142 128.583C111.6 129.208 112.095 129.722 112.243 129.726C112.644 129.737 114.757 132.06 114.757 132.49C114.757 132.696 114.55 132.861 114.292 132.861C113.582 132.861 108.37 126.928 105.521 122.877C104.333 121.186 102.284 117.158 101.817 115.594C101.728 115.294 101.271 114.549 100.803 113.939C98.6001 111.069 92.9516 100.673 90.0525 94.1513C89.6181 93.1743 89.1457 92.6099 88.1418 91.8681C86.5832 90.7167 84.6394 89.4555 82.9366 88.491C82.2711 88.114 81.4985 87.6005 81.2197 87.3501C80.9407 87.0994 80.2944 86.6824 79.7833 86.4233C78.9613 86.0066 78.8086 85.9931 78.4602 86.3066C77.9588 86.758 77.4939 86.3612 77.4876 85.4768C77.4833 84.8511 76.4091 83.9731 74.0022 82.6278C73.4594 82.3244 72.6343 81.7737 72.1684 81.4036C71.7026 81.0338 71.0493 80.5885 70.7166 80.4141C70.3838 80.2396 69.6649 79.7349 69.1188 79.2924C68.5726 78.8498 68.0727 78.4877 68.0074 78.4877C67.7671 78.4877 69.0563 86.3235 69.769 89.194C69.9004 89.7233 70.0586 90.3729 70.1208 90.6375C70.4262 91.9362 71.6874 96.7088 72.251 98.6973C72.7722 100.536 74.5406 105.933 74.813 106.517C74.9367 106.781 75.2714 107.646 75.5571 108.438C75.8427 109.231 76.1543 109.988 76.2497 110.122C76.345 110.256 76.5626 110.799 76.7329 111.328C77.0497 112.312 77.8656 114.555 78.2213 115.418C78.3302 115.683 79.1285 117.902 79.995 120.35C80.8618 122.799 81.905 125.613 82.3134 126.606C82.7217 127.598 83.0563 128.502 83.0568 128.615C83.0571 128.727 83.2129 129.16 83.4031 129.577C84.5019 131.989 88.4208 143.447 88.1466 143.447C87.7432 143.447 82.4874 132.55 80.9518 128.531C80.6232 127.67 80.2704 126.858 80.1673 126.726C80.0645 126.594 79.8116 125.998 79.6055 125.403C79.399 124.807 78.964 123.617 78.6383 122.756C77.0923 118.674 76.2761 116.474 75.6907 114.817C75.3406 113.824 74.8946 112.671 74.7 112.254C74.5055 111.837 74.3463 111.416 74.3463 111.318C74.3463 111.221 73.8555 109.859 73.2559 108.292C71.8229 104.547 71.8442 104.612 70.0276 98.3364C69.7598 97.4101 69.4316 96.111 69.2988 95.4493C69.166 94.7877 68.7737 93.0555 68.4272 91.5999C67.6308 88.2559 66.8091 83.2538 66.4398 79.5022C66.23 77.3706 66.0386 76.9979 64.5311 75.7885C63.7408 75.1545 62.9309 74.5619 62.7312 74.472C62.3595 74.3043 59.0214 71.5916 57.2867 70.0475C52.8306 66.0811 50.6794 64.0765 48.6591 62.0072C46.7714 60.0738 46.2497 59.6605 46.0029 59.902C45.5538 60.3418 44.8922 60.2699 44.3408 59.7216C43.9785 59.3614 43.8568 58.9197 43.8568 57.9653C43.8568 56.221 43.0817 55.4138 42.7686 56.8318C42.5649 57.7538 42.2418 57.9424 41.7007 57.4557C41.1321 56.944 40.6774 55.3871 40.7481 54.1942C40.8093 53.1631 40.5751 52.6711 40.328 53.3115C40.095 53.9151 39.5295 53.7823 39.3528 53.0825C39.2517 52.6816 39.1314 52.5609 39.0167 52.7452C38.6334 53.3618 37.9319 52.8797 37.7001 51.8403C37.515 51.011 37.3892 50.8428 37.0366 50.9542C36.7288 51.0512 36.5185 50.9107 36.3186 50.4745C36.163 50.135 35.899 49.8573 35.7318 49.8573C35.5646 49.8573 35.3793 49.7221 35.3197 49.5566C35.1303 49.029 34.8508 49.5583 34.7228 50.6876C34.5718 52.0181 34.2783 52.0775 33.7701 50.8799C33.4693 50.1706 33.4369 49.7332 33.6196 48.8348C33.7474 48.2062 33.7882 47.692 33.7103 47.692C33.4952 47.692 28.9131 53.9024 28.1191 55.2706C21.8591 66.0546 19.7445 76.8476 22.3678 84.6227C24.9751 92.3496 32.2947 100.111 41.7591 105.184C43.0033 105.851 44.2836 106.393 44.6045 106.389C45.0043 106.385 45.8531 105.739 47.3031 104.336L49.4185 102.29L48.8399 101.155C48.5214 100.531 47.9639 99.2627 47.6005 98.3364C47.237 97.4101 46.5629 95.8403 46.1019 94.8479C45.6412 93.8554 45.0139 92.5021 44.7081 91.8405C41.3419 84.5554 39.022 78.261 38.4151 74.7652C38.0507 72.6666 38.3271 64.9289 38.7764 64.653C39.265 64.3527 39.4564 65.4676 39.5825 69.3452C39.7526 74.587 40.3215 77.1567 42.26 81.4419C42.6058 82.2065 42.8889 82.9701 42.8889 83.1388C42.8889 83.4472 43.1778 84.0703 45.3435 88.4339C45.9898 89.736 46.5186 90.9091 46.5186 91.0407C46.5186 91.1723 46.9067 92.0558 47.381 93.0037C48.7963 95.8328 51.4177 102.609 51.3018 103.139C51.2205 103.512 52.4074 105.598 54.7664 109.227C55.776 110.78 56.7604 112.375 56.9537 112.772C57.2828 113.447 57.382 113.489 58.5058 113.424C60.7613 113.292 63.785 112.068 64.0149 111.194C64.0899 110.909 64.2913 110.723 64.4623 110.779C64.811 110.895 65.0402 111.834 65.2439 113.981C65.5663 117.377 66.7953 122.401 68.6561 127.929C69.3687 130.046 70.023 132.23 70.1102 132.781C70.2658 133.768 70.2474 133.801 68.9968 134.784C67.4588 135.992 66.4243 136.529 64.6671 137.028C62.9672 137.511 57.4754 138.224 57.1233 138.008C56.9765 137.917 56.2452 137.86 55.4984 137.879C54.7519 137.899 53.8143 137.82 53.415 137.705L52.6891 137.495L53.294 137.358C53.6267 137.282 54.8245 137.099 55.9558 136.951C57.087 136.803 58.666 136.528 59.4645 136.341C65.5711 134.909 66.1429 134.726 67.6313 133.732C68.4354 133.194 68.4724 132.6 67.8089 130.879C66.7476 128.125 64.8577 120.931 64.5376 118.426C64.4444 117.698 64.3198 116.886 64.2603 116.621C64.2008 116.357 64.0904 115.472 64.0152 114.656L63.878 113.172L62.5183 113.846C58.7838 115.698 55.7397 115.44 47.2445 112.549C42.5961 110.967 42.4843 110.918 43.075 110.7C43.5521 110.525 45.0367 110.676 46.8815 111.087C47.5918 111.246 47.5833 111.227 46.4915 110.206C44.7814 108.608 44.2147 108.185 43.3356 107.848C41.8464 107.279 38.4222 105.579 37.5232 104.962C35.7362 103.735 31.8735 100.746 31.6825 100.443C31.5744 100.271 31.3876 100.191 31.2671 100.265C30.9738 100.445 31.147 121.173 31.488 126.726C31.6344 129.108 31.796 132.762 31.8473 134.846C31.9289 138.167 31.8935 138.635 31.5608 138.635C31.2358 138.635 31.2412 138.679 31.5983 138.939C31.9623 139.203 32.0066 139.638 31.947 142.367C31.8844 145.238 31.8548 145.414 31.586 144.53C31.4248 144.001 31.0773 142.106 30.8138 140.32C29.9955 134.774 29.8834 133.658 29.4735 126.967C29.4411 126.437 29.3322 124.218 29.2315 122.035C29.1309 119.851 28.9678 116.982 28.8688 115.659C28.6834 113.178 28.7357 104.95 28.9494 103.02C29.0157 102.42 29.1882 101.193 29.3327 100.294L29.5955 98.6588L28.0753 96.9338C27.2393 95.9849 26.4371 95.1005 26.2927 94.9681C26.1482 94.8358 25.4685 93.9456 24.7825 92.99C22.9647 90.4583 21.0349 86.4493 20.2337 83.5401C19.5889 81.1994 19.5383 80.7045 19.5434 76.8035C19.5494 72.1474 19.8224 70.3927 21.2283 65.9769C23.2246 59.7071 26.4376 53.8355 30.0492 49.8573C31.8331 47.8924 32.2812 47.1069 32.1972 46.0921L32.1208 45.1658L31.4166 46.198C30.9624 46.8639 30.6294 47.1476 30.4782 46.9972C30.1738 46.6945 30.2157 44.7005 30.5389 44.0995C30.928 43.377 30.8375 43.244 30.2912 43.7355C29.8643 44.1197 29.7602 44.1337 29.5688 43.8329C29.118 43.1244 29.3392 42.341 30.2454 41.4371C31.1444 40.5402 32.4508 38.9771 32.8346 38.3391C32.9926 38.0763 32.8523 38.0292 32.1537 38.1102C31.5531 38.18 31.2738 38.1163 31.2738 37.9091C31.2738 37.5379 32.188 36.6487 32.8467 36.3792C33.2726 36.2048 33.236 36.1607 32.5442 36.0121C32.1116 35.9189 31.7578 35.7111 31.7578 35.5499C31.7578 35.2145 32.9972 34.5541 34.0322 34.338L34.7337 34.1917L33.8064 33.5652C32.8845 32.9424 32.8825 32.9375 33.4613 32.7246C33.9985 32.5271 35.3367 32.6243 36.4563 32.9424C36.8895 33.0653 36.8853 33.0297 36.3958 32.4111C35.7768 31.6285 35.7347 31.3318 36.2424 31.3318C36.7699 31.3318 38.8144 32.3962 39.6831 33.123C40.531 33.8325 40.7111 33.8768 40.7111 33.3769C40.7111 32.9659 41.0905 32.8938 41.3187 33.2611C41.4026 33.3959 41.791 32.8815 42.1818 32.1183C42.6488 31.2062 43.8667 29.73 45.7338 27.8122C48.4982 24.9735 50.2886 23.0314 50.1417 23.0314C50.1018 23.0314 50.2591 22.4629 50.4911 21.7683C50.7232 21.0738 51.0404 20.5036 51.196 20.5016C51.408 20.4987 51.4092 20.4535 51.2009 20.3212C50.9947 20.1903 51.0165 19.8633 51.2846 19.0617C51.664 17.9271 51.9133 17.5287 52.1168 17.7307ZM62.6843 20.3072C66.1143 21.9767 66.7154 22.0104 68.2026 20.6159C69.4292 19.4657 69.9567 19.5186 69.119 20.7078C68.9058 21.0105 68.7696 21.284 68.8165 21.3156C69.6717 21.8925 71.1178 22.2358 72.2863 22.1396C73.4422 22.0441 73.7718 21.8995 74.5476 21.1462C75.6682 20.0582 76.2821 19.9901 76.2821 20.9539C76.2821 22.2673 74.7913 23.5172 72.7734 23.8956C71.675 24.1014 70.3558 23.6368 68.8964 22.5298C68.1342 21.9519 67.9703 21.9125 67.4598 22.1841C66.0599 22.929 64.1589 22.398 61.1584 20.4237C60.3598 19.8982 59.668 19.4377 59.6208 19.4004C59.5736 19.3629 59.5736 19.2255 59.6208 19.0951C59.668 18.9647 61.0466 19.5102 62.6843 20.3072ZM89.833 21.0711C89.833 21.8369 88.9081 23.1498 87.9956 23.6798C87.027 24.2421 84.614 24.4873 83.6625 24.1199C82.7292 23.7595 83.1304 23.5073 85.1521 23.1837C87.2346 22.8503 88.2722 22.3491 88.9113 21.3685C89.5627 20.3688 89.833 20.2817 89.833 21.0711ZM67.5708 26.2794C67.5708 26.4118 67.4554 26.52 67.3146 26.52C67.1737 26.52 67.1256 26.4118 67.2079 26.2794C67.2901 26.1471 67.4053 26.0388 67.4641 26.0388C67.5229 26.0388 67.5708 26.1471 67.5708 26.2794ZM76.2802 26.9771C77.3659 27.1213 77.3674 27.1229 77.531 28.2667C77.7216 29.6022 79.2178 32.4725 80.8843 34.7001C82.0669 36.2808 83.1875 37.312 85.8372 39.2569C86.6374 39.8442 87.3457 40.3668 87.4112 40.4178C87.4766 40.4688 87.3406 40.616 87.1088 40.745C86.8769 40.8739 86.6872 41.128 86.6872 41.3099C86.6872 41.8033 87.8824 43.1208 88.33 43.1208C89.0494 43.1208 88.2904 43.5401 86.8082 43.9614C84.8748 44.5109 81.0111 44.7135 79.5094 44.344C78.1732 44.0153 76.5478 43.2822 75.3142 42.452C74.4764 41.888 71.2005 38.4023 71.2005 38.0746C71.2005 37.9813 70.915 37.7756 70.5658 37.6175C69.8469 37.2918 69.2785 37.5557 68.1942 38.7185C66.3191 40.7291 63.9912 47.2335 63.5622 51.6618C63.3376 53.9787 63.1828 54.1627 62.4946 52.9304C61.8521 51.7797 60.8039 50.3104 60.4339 50.0414C60.3001 49.9442 59.9589 49.8631 59.6755 49.861C59.3924 49.859 59.043 49.7161 58.899 49.5438C58.6948 49.2989 58.8607 49.1697 59.6559 48.9544C61.0231 48.5841 62.361 47.4303 63.0172 46.055C64.0732 43.8423 63.6246 39.6248 61.643 33.1363C61.3197 32.0777 60.9805 30.8867 60.889 30.4898C60.731 29.8038 60.7697 29.8238 61.6665 30.8908C62.9495 32.4174 63.6834 32.9513 65.4399 33.6357C67.2533 34.3424 67.6947 34.3553 69.1297 33.7438C70.0574 33.3482 70.3294 33.0756 70.7492 32.1198C71.0268 31.488 71.3389 30.234 71.4427 29.3332C71.5466 28.4325 71.6707 27.6652 71.7184 27.6279C71.7663 27.5909 72.2706 27.3806 72.8387 27.1607C73.8967 26.7512 74.3823 26.7252 76.2802 26.9771ZM69.1239 27.5538C69.3724 28.3942 69.1176 30.0678 68.6283 30.8114C68.1584 31.525 67.9089 31.3213 68.3331 30.5706C68.5078 30.2614 68.7125 29.3049 68.7877 28.4447C68.9036 27.1258 68.9562 26.9863 69.1239 27.5538ZM83.1601 29.4904C83.3779 30.4886 82.9847 32.2942 82.5496 32.2942C82.4093 32.2942 82.3875 32.1645 82.4988 31.9935C82.6065 31.8282 82.7539 30.989 82.8265 30.1289C82.9549 28.6028 82.9629 28.5874 83.1601 29.4904ZM127.68 31.8626C128.47 32.3021 128.825 33.6947 128.969 36.9133C129.308 44.4811 126.858 49.7529 121.895 52.1365C119.034 53.5107 117.435 53.7821 115.481 53.2251C115.017 53.0926 114.607 53.0709 114.572 53.1768C114.428 53.6045 112.471 56.0646 111.411 57.1494C110.251 58.3365 107.237 60.447 105.343 61.3987C104.072 62.0375 102.056 62.7398 102.76 62.2985C107.312 59.4468 110.796 56.4657 112.46 53.9998L113.521 52.4276L112.583 51.3687C111.578 50.2339 110.643 47.9093 110.643 46.5468C110.643 44.9531 111.526 44.1515 112.795 44.5915C113.394 44.7989 113.724 45.2137 114.446 46.6664C115.241 48.2668 115.348 48.6926 115.348 50.2574V52.033L116.279 52.282C118.296 52.8219 121.648 51.5725 124.012 49.4002C126.989 46.6652 128.116 43.4215 128.16 37.4669C128.189 33.5946 127.939 32.4099 127.02 32.0724C126.642 31.9331 126.614 31.8645 126.892 31.7584C127.088 31.6836 127.442 31.7305 127.68 31.8626ZM113.222 47.0304C114.301 49.1247 114.501 51.669 113.496 50.524C112.786 49.7144 112.428 48.9231 112.123 47.4914C111.67 45.3655 112.241 45.1261 113.222 47.0304ZM74.2253 48.0856C74.7576 48.4261 74.9938 48.6392 74.7499 48.5594C74.5062 48.4792 74.2233 48.4138 74.1215 48.4138C74.0196 48.4138 73.6852 48.1973 73.3783 47.9326C72.5992 47.2606 73.0681 47.3456 74.2253 48.0856ZM59.7515 55.5714C59.8342 55.8028 59.9463 56.0735 60 56.1729C60.054 56.2722 59.9954 56.3533 59.87 56.3533C59.7445 56.3533 59.5898 56.0826 59.5262 55.7518C59.3931 55.0596 59.5291 54.9507 59.7515 55.5714ZM60.1459 57.167C60.2369 57.4028 60.3015 57.8844 60.2896 58.2376C60.2693 58.836 60.2519 58.8249 60.0348 58.0754C59.7834 57.2064 59.8742 56.463 60.1459 57.167ZM47.8018 57.0149C48.0639 57.4797 48.2318 58.6242 48.0048 58.3983C47.7273 58.1224 47.3667 56.8345 47.5671 56.8345C47.6401 56.8345 47.7457 56.9156 47.8018 57.0149ZM31.7094 58.5667C32.5977 59.45 31.3714 60.7732 30.334 60.0509C29.4474 59.4333 29.8234 58.278 30.9109 58.278C31.1904 58.278 31.5497 58.408 31.7094 58.5667ZM53.197 60.8644C53.4477 61.9396 54.4076 63.4286 55.4592 64.3732C56.4395 65.2537 57.1037 65.4611 57.5437 65.0237C57.8776 64.6917 59.7798 65.6868 60.6306 66.6386C61.9835 68.1521 62.9294 67.402 62.0183 65.5379C61.6733 64.8315 61.5724 64.3963 61.7408 64.3404C61.8862 64.2921 62.0053 64.096 62.0053 63.9047C62.0053 63.6422 62.1839 63.688 62.7312 64.0902C63.1486 64.397 63.4572 64.845 63.4572 65.1442C63.4572 66.1085 63.9685 67.1799 64.4285 67.1799C64.6707 67.1799 64.9182 67.0447 64.979 66.8792C65.0395 66.7139 65.1609 66.9573 65.2485 67.4205C65.4337 68.3968 65.8303 73.0361 65.7388 73.1538C65.6415 73.2786 64.4297 72.4724 62.9221 71.2803C62.1621 70.679 60.9878 69.7605 60.3126 69.2391C59.0543 68.2671 58.5784 67.8646 56.0985 65.6755C53.5641 63.438 53.052 62.9048 53.052 62.5028C53.052 62.2858 52.8321 61.6795 52.5632 61.1555C52.0749 60.2042 52.0749 60.2028 52.5586 60.2028C52.8882 60.2028 53.0919 60.414 53.197 60.8644ZM58.9491 62.4282C59.2385 63.5025 59.1349 63.711 58.5839 63.1632C58.2807 62.8618 58.1273 62.491 58.2135 62.2677C58.4245 61.7211 58.7792 61.7986 58.9491 62.4282ZM72.3291 63.4668C72.4092 63.6742 72.3514 63.9666 72.2006 64.1164C71.9964 64.3195 71.9265 64.2233 71.9265 63.7394C71.9265 63.0155 72.1077 62.893 72.3291 63.4668ZM66.5153 63.4507C66.5947 63.6564 66.9557 63.8116 67.3547 63.8116C67.9783 63.8116 68.0574 63.897 68.079 64.5935C68.0923 65.0237 68.1857 65.6461 68.2868 65.9769L68.4707 66.5784L68.7468 65.9011C68.8986 65.5287 69.0227 65.1166 69.0227 64.9855C69.0227 64.8543 69.2676 65.029 69.5672 65.3738C69.8667 65.7183 70.3601 66.0183 70.6638 66.0405C71.1366 66.0746 71.1947 66.1769 71.0682 66.7504C70.9641 67.2215 71.0156 67.4202 71.2419 67.4195C71.9153 67.4176 73.1744 66.4153 73.8674 65.3288C74.3264 64.6089 74.5882 64.3616 74.5882 64.6477C74.5882 64.8948 74.7789 65.3136 75.0117 65.5783C75.2445 65.8432 75.2989 65.9805 75.1327 65.8838C74.9614 65.7842 74.8302 65.8316 74.8302 65.9928C74.8302 66.1764 75.0708 66.2298 75.5075 66.1429C76.1611 66.013 76.2221 66.0898 77.2529 68.3383C78.4771 71.0084 80.6781 74.9873 82.6607 78.114C83.4113 79.298 84.0255 80.3604 84.0255 80.4752C84.0255 80.5899 84.3103 81.2995 84.6585 82.0518C85.0067 82.8041 85.6182 84.2318 86.0174 85.2242C86.4167 86.2167 86.7906 87.108 86.8482 87.205C86.9057 87.302 86.4029 87.1068 85.7312 86.7715C85.0592 86.4358 84.5094 86.0586 84.5094 85.9332C84.5094 85.8079 84.3732 85.7025 84.2069 85.6987C83.8551 85.691 81.7959 84.4194 77.8855 81.7958C76.3571 80.7704 75.0032 79.9312 74.8769 79.9312C74.7509 79.9312 74.5002 79.7546 74.3199 79.5388C74.0085 79.1656 71.5988 77.4765 69.9033 76.4426C67.4948 74.9743 67.527 75.0333 67.0527 71.2295C66.8163 69.3329 66.5642 67.5107 66.4928 67.1799C66.4214 66.8491 66.2474 65.949 66.1066 65.1801C65.9655 64.4109 65.7901 63.6259 65.7168 63.4358C65.634 63.2217 65.7342 63.0898 65.9796 63.0898C66.1978 63.0898 66.4388 63.2522 66.5153 63.4507ZM4.65604 67.2903C7.28467 67.8865 8.72591 68.7632 8.09966 69.3859C7.98859 69.4963 7.25006 69.382 6.45855 69.132C5.66679 68.8821 3.98455 68.3831 2.72021 68.0232C1.45586 67.6632 0.258057 67.2754 0.0584259 67.1614C-0.502487 66.8407 3.12141 66.9424 4.65604 67.2903ZM52.9591 72.8198C53.2195 73.4944 52.9366 74.0355 52.2842 74.1108C51.5367 74.1972 51.1227 73.4059 51.6098 72.8222C51.9849 72.373 52.7861 72.3716 52.9591 72.8198ZM28.6905 76.4193C28.9143 76.9989 28.2885 77.5739 27.5299 77.4858C26.6968 77.3889 26.5119 77.0013 27.0457 76.4706C27.5265 75.9923 28.5138 75.9615 28.6905 76.4193ZM57.1199 87.3989C57.7406 87.9737 57.8079 88.8819 57.2695 89.4175C56.7388 89.9448 56.062 89.8885 55.4813 89.2688C54.7164 88.4525 54.8562 87.7203 55.8793 87.185C56.553 86.8323 56.4983 86.8229 57.1199 87.3989ZM51.025 105.735C52.2992 108.259 53.393 110.035 54.8071 111.876C55.3433 112.574 55.7141 113.213 55.6308 113.295C55.5478 113.378 54.44 113.167 53.1696 112.826C50.9843 112.239 50.7977 112.138 49.7173 110.941C48.5844 109.686 47.4398 108.584 46.2766 107.628L45.6716 107.131L47.5165 105.32C48.5311 104.324 49.4828 103.509 49.6314 103.509C49.78 103.509 50.4069 104.511 51.025 105.735ZM37.3139 109.81C37.9658 110.506 37.9249 111.405 37.2009 112.286C36.5226 113.111 36.0541 112.899 35.9728 111.731C35.9467 111.354 35.7836 110.821 35.6104 110.545C35.3517 110.134 35.3522 109.976 35.6133 109.664C36.0571 109.132 36.7329 109.19 37.3139 109.81ZM91.1399 111.353C91.2398 111.612 91.1 111.974 90.7627 112.331C90.1316 112.999 89.7609 112.769 89.8746 111.779C89.9673 110.971 90.8747 110.666 91.1399 111.353ZM41.8992 120.651C42.1114 121.213 41.4075 122.997 40.9741 122.997C40.3892 122.997 40.2922 121.042 40.8492 120.488C41.3712 119.969 41.6582 120.014 41.8992 120.651ZM49.3347 125.764C49.5457 126.31 49.2631 126.819 48.5756 127.131C47.6075 127.569 47.2941 127.069 47.9571 126.143C48.5287 125.345 49.1114 125.185 49.3347 125.764ZM106.772 135.74C106.772 136.043 105.955 136.472 105.396 136.462C105.015 136.455 105.032 136.392 105.528 135.981C106.135 135.478 106.772 135.355 106.772 135.74ZM38.4403 141.388C38.5139 141.579 38.5369 141.931 38.4911 142.17C38.3842 142.731 37.1331 142.872 36.4795 142.397C36.0077 142.053 36.0072 142.038 36.4566 141.544C36.9831 140.966 38.2392 140.867 38.4403 141.388Z" fill="black"/>
</svg>
