<svg width="104" height="216" viewBox="0 0 104 216" fill="none" xmlns="http://www.w3.org/2000/svg">
<path fill-rule="evenodd" clip-rule="evenodd" d="M75.4633 0.467825C73.9868 1.01319 72.2523 2.64867 70.8662 4.80326C70.2931 5.69409 69.6401 6.49428 69.4151 6.58126C69.19 6.66854 68.0084 6.25807 66.7889 5.66937C61.2533 2.99658 58.5361 2.46708 56.2893 3.62373C55.3114 4.12698 54.8124 4.81516 52.9744 8.19659C51.7843 10.3857 50.8108 12.2766 50.8108 12.3984C50.8108 12.7399 48.077 15.2173 46.768 16.0621C45.6873 16.7597 45.6117 16.8995 45.7732 17.9027C45.9789 19.1823 46.95 20.3408 48.3059 20.9237C49.4803 21.4287 52.4709 21.4712 53.8056 21.0015C54.3379 20.8144 54.852 20.7405 54.9485 20.8376C55.0447 20.9346 54.8726 21.8133 54.5659 22.7899L54.0088 24.5657L51.4792 24.556C49.4126 24.5483 48.8787 24.6441 48.5615 25.0806C48.3479 25.3741 48.0437 25.6146 47.8852 25.6146C47.3103 25.6146 46.0188 27.3227 45.6583 28.5597C45.4278 29.3507 45.3716 30.381 45.5086 31.3036C45.6895 32.5212 45.9871 33.0419 47.2053 34.2712C48.018 35.0909 48.6141 35.8737 48.5303 36.0104C48.4465 36.1471 47.0263 37.153 45.3737 38.2453C41.1918 41.0102 40.2869 42.39 40.0346 46.3848C39.8514 49.2853 40.2699 52.8385 40.8165 53.0247C40.9716 53.0775 41.0333 53.292 40.9538 53.5014C40.6946 54.1829 43.0863 60.3903 43.9734 61.3388C44.4352 61.8326 44.9037 62.2342 45.0144 62.2315C45.3144 62.2235 46.5212 59.2007 46.7483 57.8878C46.8654 57.2106 47.1179 56.7433 47.3662 56.7433C47.5973 56.7433 47.7863 56.8892 47.7863 57.0674C47.7863 57.7944 49.3729 60.7107 49.7685 60.7107C50.2155 60.7107 50.3029 60.4425 50.7971 57.557C51.3213 54.496 53.2515 50.8499 54.0754 51.3639C54.4292 51.5845 54.8266 54.3394 54.7634 56.133C54.7368 56.8883 54.4492 58.6239 54.124 59.9896C53.1617 64.0311 53.4605 64.6708 54.6745 61.1685C55.7219 58.1478 56.2823 54.5256 55.9602 52.8562C55.623 51.1066 54.4186 47.9663 53.5267 46.5099C52.4273 44.7148 51.4332 45.4448 52.4742 47.2827C53.2094 48.5806 53.073 48.6673 50.4811 48.5483C48.8978 48.4759 47.9115 48.5602 47.6859 48.7878C47.1572 49.3213 47.9877 49.714 49.6569 49.7195C50.4363 49.722 51.4184 49.8563 51.8394 50.0177L52.6052 50.3116L51.7589 51.9346C51.2935 52.8272 50.5848 54.4804 50.1841 55.6084C49.7831 56.736 49.3584 57.6589 49.2399 57.6589C49.0027 57.6589 48.3954 55.6615 48.393 54.8732C48.3909 54.2707 47.6197 53.571 47.2274 53.8154C47.0716 53.9125 46.5067 55.3676 45.9716 57.0485C45.4366 58.7295 44.8931 60.1712 44.7634 60.252C44.3832 60.4892 43.9676 59.7946 42.9384 57.2011C41.1425 52.6765 40.5787 45.8831 41.7897 43.3589C42.6614 41.5415 44.3115 39.921 46.308 38.9209C47.2041 38.472 48.5264 37.6291 49.2465 37.0477C50.1726 36.2997 50.8616 35.9909 51.6026 35.9909C53.4414 35.9909 55.502 34.5797 56.713 32.4913C56.974 32.0415 57.2828 31.9948 58.7657 32.1819C60.3444 32.3809 60.5507 32.4929 60.9239 33.3571C61.9332 35.6933 63.9674 36.9781 66.4466 36.8451C68.1272 36.7547 68.1469 36.7425 68.5582 35.5404C68.7863 34.873 69.1256 34.1863 69.3122 34.0145C69.5515 33.7938 69.5865 33.817 69.4317 34.0935C68.9847 34.8901 68.6986 36.2961 68.9829 36.2961C69.1401 36.2961 69.755 35.8462 70.3496 35.2966C72.4392 33.3642 72.6343 29.3186 70.7376 27.2403C69.7459 26.1536 67.8463 25.3241 66.3307 25.3162C64.0839 25.3043 63.6526 25.6522 62.1334 28.7049C61.3649 30.2485 60.6439 31.3606 60.5307 31.176C60.4176 30.9914 59.6497 30.7261 58.8243 30.5864C57.5132 30.3645 57.2891 30.2177 57.0502 29.4233C56.6504 28.0915 56.605 27.9896 55.9711 26.988C55.6523 26.4844 55.384 25.7291 55.375 25.3095C55.3583 24.5407 56.5823 20.8077 58.3244 16.316C58.8785 14.8874 59.1561 13.7714 58.9973 13.6112C58.5164 13.1259 58.1856 13.6362 57.0082 16.6761C56.3718 18.3192 55.8093 19.7176 55.7579 19.7835C55.7064 19.8491 55.4587 19.7307 55.2068 19.5198C54.8369 19.2101 54.5163 19.2308 53.53 19.6291C52.8595 19.8998 51.4864 20.1213 50.479 20.1213C48.8476 20.1213 48.5479 20.0212 47.7418 19.2079C46.5115 17.9664 46.6763 17.1226 48.328 16.2049C49.9064 15.3281 51.5514 13.1839 53.6858 9.22171C55.6892 5.50244 56.393 4.59513 57.7038 4.04244C58.5168 3.69972 59.0581 3.67378 60.2104 3.92311C61.4411 4.18954 67.226 6.50283 68.596 7.27647C68.8997 7.44798 68.6471 7.92407 67.598 9.15945C66.8255 10.0692 65.6454 11.6372 64.9755 12.6443C63.8945 14.2685 63.7739 14.6286 63.9072 15.8314C64.0252 16.8974 64.2741 17.3698 65.0707 18.0403C67.8629 20.3896 70.5792 20.7348 74.1958 19.1994C76.501 18.2207 79.1532 16.4341 79.4466 15.662C79.8815 14.5188 78.9705 14.6534 77.1577 16.0001C76.1245 16.7674 74.5714 17.6753 73.7061 18.0171C72.8411 18.3592 72.0152 18.755 71.8712 18.8966C71.4012 19.3593 68.2494 18.8353 67.0932 18.1025C64.0666 16.1845 64.3043 14.9906 68.8592 9.23025C70.3272 7.37382 71.9635 5.22533 72.4958 4.45627C73.6429 2.7979 75.7165 1.19996 76.7218 1.19996C78.1569 1.19996 81.172 2.87725 82.527 4.4291C85.2886 7.59264 87.0146 11.4233 87.8361 16.2125C88.0753 17.6069 88.4903 19.9153 88.7579 21.3421C89.7971 26.8805 89.4191 35.6973 87.8427 42.6909C87.2983 45.1061 86.5344 45.9633 83.6787 47.3629C80.4014 48.9688 72.9273 51.0849 72.4026 50.5554C72.2968 50.4486 72.568 49.0848 73.0054 47.525C73.8861 44.384 74.067 41.4842 73.3819 41.4842C73.1 41.4842 72.9023 42.0658 72.7634 43.3018C72.4323 46.2563 70.8036 50.5261 68.975 53.2337C68.2473 54.311 68.2295 54.1435 68.8123 51.7078C69.0533 50.7007 69.2526 48.4689 69.2551 46.7486C69.259 44.1695 69.1804 43.6205 68.8062 43.6205C68.4403 43.6205 68.3526 44.0996 68.3526 46.1028C68.3526 48.5009 68.2446 49.1516 67.2453 52.776C66.7157 54.6968 64.3585 58.7286 63.4911 59.1967C63.1708 59.3698 62.9086 59.4485 62.9086 59.3713C62.9086 59.2941 63.3371 58.1563 63.8607 56.8428C64.6237 54.929 64.8109 54.0242 64.8031 52.2883C64.7916 49.7745 64.5539 48.8086 63.9469 48.8086C63.4533 48.8086 63.4572 48.7793 63.5095 51.8705C63.531 53.1348 63.4061 54.5469 63.2325 55.0081C62.927 55.8189 62.8913 55.8305 62.1733 55.3557C61.4366 54.8686 61.4242 54.8771 60.6629 56.3927C60.241 57.2332 59.7568 58.0074 59.5874 58.113C59.2172 58.344 59.2202 58.2741 59.6766 56.1119C60.1146 54.037 59.9863 50.5548 59.4785 50.7239C59.2777 50.7907 59.0521 51.8076 58.9505 53.1053C58.8528 54.351 58.6036 55.9755 58.3967 56.7153C57.898 58.4988 56.1196 61.9891 55.3535 62.6889C54.5193 63.4507 54.5807 64.0677 55.4908 64.0677C55.995 64.0677 56.3885 63.7937 56.696 63.2285C56.9471 62.7671 57.7785 61.7026 58.5434 60.8633C59.826 59.4558 59.9234 59.4024 59.8 60.1748C59.6077 61.3791 60.2567 61.8338 61.5134 61.3751C62.9119 60.8648 63.4448 60.9274 63.665 61.6272C63.9345 62.4841 63.5691 66.6829 62.8949 70.4766C61.7614 76.8561 61.5107 80.3731 61.0893 95.8068C60.9176 102.101 60.6989 108.041 60.6033 109.006C60.4306 110.752 59.9709 111.315 59.6694 110.15C59.5687 109.763 59.2568 109.54 58.8134 109.54C57.9968 109.54 54.4365 107.665 50.8546 105.348C48.674 103.938 48.3531 103.622 48.5125 103.041C49.2964 100.184 49.607 96.933 49.4162 93.5802C49.2641 90.9068 49.3106 89.7929 49.5977 89.2518C49.81 88.8514 49.901 88.3063 49.8003 88.0405C49.3974 86.9815 48.187 86.8869 37.1862 87.0575C27.178 87.2125 26.3157 87.269 24.7092 87.8757C22.495 88.7116 22.2113 89.2365 22.6782 91.6319C23.2719 94.6767 27.677 103 29.6813 104.864C30.974 106.066 34.5925 108.016 36.7268 108.661C38.3491 109.151 39.2425 109.249 40.6737 109.094L42.5241 108.894L51.1498 117.552C55.894 122.314 59.8723 126.464 59.9906 126.775C60.3574 127.74 59.8711 130.903 59.3557 130.903C59.108 130.903 57.7307 130.369 56.2947 129.717C54.8587 129.065 52.1869 128.155 50.3571 127.695C48.5273 127.236 46.0094 126.452 44.7619 125.954C40.1112 124.099 29.7437 120.256 28.4298 119.901C27.6813 119.699 25.7677 119.535 24.1778 119.538C21.688 119.541 21.0765 119.649 19.7742 120.315C16.6314 121.922 15.36 123.246 13.6732 126.67C9.93018 134.266 9.70969 136.055 9.47046 160.761C9.33436 174.828 9.20915 178.883 8.88614 179.686L8.47481 180.707L5.34451 180.492C1.32894 180.215 0 180.778 0 182.756C0 183.907 1.27632 184.568 4.99488 185.342C10.1981 186.425 10.9682 186.518 12.8001 186.287C14.394 186.086 14.4614 186.039 15.1005 184.661C15.4625 183.881 16.0849 182.143 16.4839 180.8C17.5962 177.055 18.2535 175.154 18.4352 175.158C18.526 175.16 19.3955 177.598 20.3672 180.575C21.339 183.553 22.7163 187.568 23.4277 189.498C25.5097 195.147 26.114 198.139 26.1394 202.926C26.1651 207.743 26.1854 207.698 22.8361 210.285C20.1558 212.356 17.7705 214.757 17.9256 215.229C18.1739 215.984 19.6371 216.164 23.0557 215.859C26.0571 215.592 26.8154 215.399 29.4088 214.245C31.4189 213.35 32.6535 212.59 33.2983 211.849L34.2428 210.763L34.0889 207.837C34.0045 206.227 33.4456 201.821 32.847 198.047C31.6929 190.765 30.8751 183.097 30.7965 178.817C30.7499 176.293 31.5441 169.875 32.0676 168.539C32.211 168.174 33.0678 167.312 33.9718 166.623C35.3812 165.549 35.9982 165.303 38.2983 164.897C40.2076 164.56 41.7534 164.484 43.6585 164.635L46.3358 164.848L46.1201 165.805C45.237 169.721 45.1953 172.142 45.8204 183.242C46.1213 188.585 46.5542 192.971 47.1454 196.67C47.6281 199.691 48.1864 203.674 48.3854 205.52C48.8796 210.097 48.8397 209.956 50.0413 211.373C51.0131 212.518 51.2793 212.653 53.0014 212.865C56.2393 213.262 68.3477 213.206 69.8521 212.785C70.5937 212.578 72.363 212.316 73.7839 212.202C75.2048 212.089 76.7076 211.866 77.1235 211.707C77.5393 211.548 78.8323 211.309 79.9967 211.176C81.1611 211.043 83.9512 210.521 86.1968 210.015C88.4425 209.509 90.9603 209.005 91.7921 208.895C93.8744 208.62 101.319 206.915 101.968 206.565C103.378 205.803 103.384 205.732 103.267 193.211C103.161 181.826 102.86 175.398 102.208 170.577C102.038 169.318 101.763 166.915 101.597 165.236C101.044 159.651 99.6756 155.371 97.6477 152.883C97.1716 152.299 96.7824 151.648 96.7824 151.437C96.7824 151.225 97.403 149.178 98.1612 146.888C100.278 140.495 102.081 133.604 102.783 129.224C104.549 118.206 104.373 102.619 102.388 94.2809C101.126 88.978 96.9878 76.1454 94.9577 71.2396C94.2633 69.561 93.1794 66.8831 92.5491 65.2885C91.9188 63.6939 91.0444 61.4966 90.6059 60.4055C88.6233 55.4713 88.0115 52.9298 88.0115 49.6289C88.0115 47.6016 88.1394 46.3601 88.3729 46.1245C88.5716 45.924 88.7564 44.9697 88.7836 44.0035C88.8112 43.0376 89.054 41.1485 89.3235 39.8057C90.2115 35.3832 90.4474 32.8682 90.4556 27.7387C90.4625 23.3911 90.3539 22.1813 89.6913 19.2192C89.2663 17.3204 88.9188 15.4081 88.9188 14.9695C88.9188 12.6184 85.6364 5.84272 83.2256 3.21783C82.4468 2.36973 77.8085 -0.043354 77.0424 0.000592428C76.8374 0.0124946 76.1269 0.222763 75.4633 0.467825ZM61.7795 27.5147C61.1746 28.2789 60.4545 29.9348 60.5725 30.2894C60.6387 30.4878 61.0494 29.9 61.4846 28.9836C62.2647 27.342 62.3829 26.7524 61.7795 27.5147ZM68.3861 31.7522C68.1998 32.2914 68.1003 32.7861 68.1651 32.8515C68.2298 32.9168 68.4351 32.5289 68.6214 31.9896C68.8078 31.4504 68.9072 30.9556 68.8425 30.8903C68.7778 30.825 68.5724 31.2129 68.3861 31.7522ZM47.4343 39.621C45.7911 39.9659 44.7619 40.7526 44.7619 41.6639C44.7619 42.5523 45.2554 43.6205 45.6662 43.6205C45.8189 43.6205 46.2753 43.9546 46.6803 44.3633C47.434 45.1235 49.2462 45.6542 50.0401 45.3469C50.8824 45.0206 52.323 42.6549 52.323 41.598C52.323 39.9073 50.1868 39.0436 47.4343 39.621ZM49.7159 41.3169C49.503 41.8766 49.8127 42.3997 50.3571 42.3997C50.9133 42.3997 51.1577 41.9563 50.9305 41.359C50.6998 40.752 49.9406 40.7258 49.7159 41.3169ZM45.9716 41.9239C45.9716 42.166 46.1077 42.4486 46.2741 42.5523C46.4404 42.6561 46.5765 42.458 46.5765 42.1125C46.5765 41.7671 46.4404 41.4842 46.2741 41.4842C46.1077 41.4842 45.9716 41.6819 45.9716 41.9239ZM83.1963 65.1612C83.2108 65.5168 83.2825 65.5891 83.3789 65.3458C83.4664 65.1255 83.4555 64.8621 83.355 64.7608C83.2546 64.6595 83.1833 64.8396 83.1963 65.1612ZM90.3315 76.2751C90.4314 77.1983 90.5626 78.011 90.6231 78.0808C90.8575 78.3509 90.6766 75.7847 90.4205 75.2069C90.2438 74.8084 90.213 75.1789 90.3315 76.2751ZM92.8603 79.5558C92.8654 79.6818 93.0696 80.0514 93.314 80.3771C93.558 80.703 93.7579 81.2786 93.7579 81.6561C93.7579 82.0339 93.8759 82.4163 94.0202 82.506C94.2878 82.6732 93.9143 80.1344 93.5943 79.6117C93.3859 79.2717 92.8467 79.2305 92.8603 79.5558ZM80.2991 80.8528C80.402 81.0207 80.5459 81.158 80.6194 81.158C80.6929 81.158 80.7528 81.0207 80.7528 80.8528C80.7528 80.685 80.6086 80.5477 80.4325 80.5477C80.2565 80.5477 80.1963 80.685 80.2991 80.8528ZM87.7329 81.3359C87.7475 81.6915 87.8191 81.7638 87.9156 81.5206C88.003 81.3002 87.9921 81.0369 87.8917 80.9355C87.7913 80.8342 87.7199 81.0143 87.7329 81.3359ZM95.9083 82.2262C95.9056 82.5619 96.0956 83.7292 96.3306 84.8202L96.7579 86.8039L96.6015 84.8758C96.4431 82.9198 95.9192 80.9175 95.9083 82.2262ZM80.3424 82.9928C79.5524 83.4982 78.7425 84.288 78.5425 84.7476C78.3429 85.2072 77.7949 86.232 77.3249 87.0249C75.5819 89.9656 73.499 96.6601 70.937 107.556C68.9187 116.139 67.0493 121.53 64.8433 125.129C63.2409 127.743 61.8754 130.572 62.1047 130.804C62.4186 131.12 64.2829 128.421 65.6094 125.728C67.3146 122.267 69.1834 116.68 71.3304 108.625C72.1579 105.519 73.3323 101.125 73.9399 98.8587C75.1905 94.193 77.0932 88.5169 78.0553 86.5802C79.2615 84.1525 81.0704 82.6839 82.8548 82.6839C83.3623 82.6839 83.7773 82.5466 83.7773 82.3788C83.7773 81.7327 81.743 82.0962 80.3424 82.9928ZM27.9665 88.7852C26.6303 88.9033 25.2064 89.1788 24.802 89.3971C24.1049 89.7737 24.0976 89.8057 24.6605 90.0151C26.2807 90.6181 32.012 90.9892 37.5201 90.8473C42.5543 90.7176 43.6694 90.5995 45.2663 90.0273C46.2922 89.6598 47.2065 89.1618 47.2982 88.9207C47.4409 88.5456 46.2357 88.4888 38.9304 88.5264C34.2362 88.5505 29.3027 88.6668 27.9665 88.7852ZM45.0643 91.5855C43.4066 92.0848 42.1261 92.1803 36.8983 92.1941C33.4882 92.2032 29.3532 92.047 27.7097 91.8471C23.5732 91.3441 23.4761 91.4659 25.1438 95.0622C26.7694 98.5678 29.5138 102.964 30.723 104C31.9086 105.016 33.1882 105.755 35.6885 106.868C37.4357 107.645 37.9402 107.732 40.2252 107.649C42.3614 107.572 42.9675 107.433 43.8101 106.827C44.9219 106.027 46.4964 103.695 47.2676 101.708C48.2264 99.2365 48.3171 90.8674 47.3841 90.9584C47.1896 90.9776 46.1455 91.2596 45.0643 91.5855ZM80.6327 92.8313C79.2672 95.2953 78.2401 97.6456 78.4403 97.8476C78.5891 97.9977 81.084 93.2161 81.6741 91.6499C82.1543 90.3755 81.7215 90.8662 80.6327 92.8313ZM87.1042 96.2646C86.9045 96.8747 86.8132 97.446 86.9006 97.5345C86.9883 97.6227 87.2025 97.175 87.3764 96.5393C87.7871 95.0381 87.5754 94.8241 87.1042 96.2646ZM91.2123 98.172C91.1167 98.6337 90.9044 99.9726 90.7408 101.148C90.4084 103.535 89.4412 106.742 88.0393 110.106C87.5249 111.34 87.1042 112.474 87.1042 112.626C87.1042 113.045 84.6677 118.665 82.5542 123.121C79.1774 130.239 74.67 135.949 70.9466 137.826C68.7297 138.943 66.7012 140.325 66.9341 140.56C67.0076 140.634 67.816 140.361 68.7306 139.953C71.2343 138.835 75.1161 135.959 76.3175 134.331C76.9039 133.537 78.3568 131.582 79.5464 129.987C81.9444 126.773 85.0729 120.714 86.166 117.168C86.5537 115.91 87.2632 114.125 87.7423 113.202C89.7263 109.38 91.9176 101.297 91.9409 97.7142C91.9454 96.9854 91.3856 97.3376 91.2123 98.172ZM100.024 99.7742C100.125 100.865 100.321 102.101 100.46 102.521C100.62 103.003 100.655 102.528 100.554 101.229C100.467 100.099 100.271 98.8626 100.119 98.4821C99.9327 98.017 99.9018 98.4402 100.024 99.7742ZM85.7807 99.9387C85.4888 100.706 85.5747 100.904 85.9313 100.285C86.1079 99.979 86.1887 99.664 86.1106 99.5856C86.0329 99.5069 85.8841 99.6659 85.7807 99.9387ZM87.1646 100.598C86.717 102.07 86.9336 102.288 87.4066 100.842C87.6062 100.232 87.7106 99.6741 87.6386 99.6015C87.5669 99.5288 87.3534 99.9775 87.1646 100.598ZM80.1942 100.297C79.739 101.156 78.6366 104.15 78.7382 104.252C78.7869 104.301 79.285 103.385 79.8455 102.216C80.4059 101.047 80.7824 100.007 80.682 99.906C80.5816 99.8047 80.3621 99.9808 80.1942 100.297ZM75.4975 106.348C75.2057 107.115 75.2916 107.313 75.6481 106.694C75.8248 106.388 75.9055 106.073 75.8275 105.994C75.7498 105.916 75.601 106.075 75.4975 106.348ZM46.1229 106.793C46.02 106.961 46.0802 107.099 46.2562 107.099C46.4323 107.099 46.5765 106.961 46.5765 106.793C46.5765 106.626 46.5166 106.488 46.4431 106.488C46.3697 106.488 46.2257 106.626 46.1229 106.793ZM77.4713 108.823C76.9311 109.928 76.5506 110.895 76.6256 110.971C76.701 111.046 77.2039 110.204 77.7435 109.098C78.283 107.992 78.6635 107.025 78.5891 106.95C78.5144 106.875 78.0115 107.718 77.4713 108.823ZM96.8202 107.709C96.8199 108.129 97.0086 109.433 97.24 110.608L97.6601 112.744L97.4856 110.456C97.3077 108.119 96.8214 106.113 96.8202 107.709ZM50.3571 113.202C50.4599 113.37 50.6801 113.507 50.8465 113.507C51.0128 113.507 51.0648 113.37 50.962 113.202C50.8591 113.034 50.639 112.897 50.4726 112.897C50.3063 112.897 50.2543 113.034 50.3571 113.202ZM59.6963 114.652C59.3119 117.129 59.3851 122.587 59.8085 123.014C60.1109 123.319 60.1866 123.026 60.1866 121.551C60.1866 120.536 60.2752 118.243 60.3838 116.454C60.5211 114.188 60.4808 113.202 60.251 113.202C60.0695 113.202 59.82 113.855 59.6963 114.652ZM57.4646 114.118C57.4646 114.286 57.6007 114.423 57.767 114.423C57.9333 114.423 58.0694 114.286 58.0694 114.118C58.0694 113.95 57.9333 113.813 57.767 113.813C57.6007 113.813 57.4646 113.95 57.4646 114.118ZM57.1621 117.17C57.1621 117.338 57.2982 117.475 57.4646 117.475C57.6309 117.475 57.767 117.338 57.767 117.17C57.767 117.002 57.6309 116.864 57.4646 116.864C57.2982 116.864 57.1621 117.002 57.1621 117.17ZM94.701 120.298C94.6813 121.095 94.8014 121.747 94.9677 121.747C95.3083 121.747 95.3083 121.114 94.9677 119.764C94.7618 118.946 94.733 119.004 94.701 120.298ZM57.1621 119.916C57.1621 120.252 57.2982 120.527 57.4646 120.527C57.6309 120.527 57.767 120.252 57.767 119.916C57.767 119.581 57.6309 119.306 57.4646 119.306C57.2982 119.306 57.1621 119.581 57.1621 119.916ZM90.7335 119.611C90.7335 119.779 90.8696 119.916 91.0359 119.916C91.2023 119.916 91.3384 119.779 91.3384 119.611C91.3384 119.443 91.2023 119.306 91.0359 119.306C90.8696 119.306 90.7335 119.443 90.7335 119.611ZM21.2141 120.995C20.5321 121.294 20.2544 121.588 20.3694 121.89C20.4773 122.174 20.0624 122.733 19.2367 123.416C17.7877 124.614 17.5418 124.704 17.5418 124.036C17.5418 123.785 17.4269 123.579 17.2862 123.579C16.7524 123.579 16.0057 124.778 14.2418 128.467C12.4093 132.299 11.9768 133.94 11.3474 139.448C11.1705 140.996 11.1914 141.079 11.6169 140.516C11.871 140.18 12.0981 140.043 12.1217 140.211C12.2185 140.895 12.0297 144.8 11.893 144.941C11.812 145.025 11.5528 144.827 11.3169 144.501C10.9352 143.974 10.888 144.218 10.888 146.714C10.888 149.004 10.9712 149.519 11.3417 149.519C11.6511 149.519 11.7963 149.834 11.7987 150.511C11.8005 151.057 11.8864 152.018 11.9895 152.647C12.1538 153.65 12.1026 153.792 11.5737 153.792C10.8218 153.792 10.5856 155.225 10.5856 159.785C10.5856 162.265 10.6754 162.947 11.0014 162.947C11.2301 162.947 11.5023 163.376 11.6063 163.901C11.9315 165.542 11.8407 165.999 11.1905 165.999C10.6727 165.999 10.5856 166.203 10.5856 167.41C10.5856 168.555 10.6618 168.757 10.9915 168.48C11.5897 167.98 11.7954 168.369 11.7954 170.002C11.7954 171.075 11.655 171.542 11.2661 171.762C10.8036 172.025 10.7365 172.576 10.7332 176.126C10.7311 178.712 10.5916 180.507 10.35 181.063L9.9701 181.936L6.10576 181.719C2.71535 181.529 2.19061 181.564 1.82707 182.006C1.47533 182.434 1.47956 182.577 1.85641 182.957C2.36058 183.466 7.19335 184.477 10.6031 184.786C13.3269 185.034 13.5562 184.883 14.3589 182.307C14.7911 180.92 14.8316 180.432 14.5512 179.979C14.1454 179.323 14.7309 177.721 16.1339 175.646C16.9874 174.384 17.1538 173.359 16.5967 172.797C16.3444 172.542 16.4288 172.094 16.9221 171.066C17.6223 169.606 17.4901 168.485 16.7394 169.521C16.4258 169.954 16.332 169.978 16.332 169.628C16.332 169.378 16.4554 169.043 16.6063 168.883C16.7618 168.719 16.8081 166.497 16.7134 163.764C16.6215 161.108 16.4451 159.1 16.3217 159.302C16.1984 159.503 15.9416 159.571 15.751 159.453C15.5057 159.3 15.5802 158.951 16.006 158.255C16.3898 157.629 16.7306 156.232 16.949 154.388C17.4505 150.157 18.0427 147.57 18.8992 145.864C19.3172 145.032 19.6589 143.887 19.6589 143.319C19.6589 142.365 20.9095 140.141 21.7352 139.626C22.3837 139.222 22.3837 140.113 21.7352 141.032C21.1028 141.928 21.0955 141.983 21.6402 141.76C24.414 140.623 25.8702 140.811 29.9717 142.834C32.5821 144.123 35.455 145.994 40.586 149.748C41.102 150.126 41.8106 150.437 42.1602 150.44C43.3047 150.449 45.1886 151.768 45.7409 152.948C46.3101 154.163 48.161 155.621 49.1419 155.626C50.0202 155.63 52.6765 156.948 53.3528 157.716C54.1092 158.574 53.485 158.578 52.1158 157.724C51.5469 157.369 51.0225 157.139 50.9502 157.212C50.7482 157.415 56.556 161.331 57.8886 161.889C58.5376 162.161 59.3064 162.321 59.5968 162.244C59.8874 162.168 60.8492 162.294 61.7339 162.526C62.6188 162.758 64.1217 162.947 65.0738 162.947C66.0259 162.947 66.8887 163.085 66.9916 163.252C67.1098 163.446 66.3126 163.56 64.8167 163.564L62.4549 163.571L63.7091 164.146C65.3139 164.881 69.2548 165.269 70.7268 164.837C71.3341 164.659 73.5062 164.234 75.5541 163.894C79.3824 163.258 82.1934 162.087 82.8472 160.854C82.9991 160.568 83.9167 160.009 84.8869 159.613C87.23 158.655 87.3776 158.47 85.9857 158.232C85.147 158.09 84.4227 158.198 83.4618 158.61C81.5634 159.425 80.5196 159.645 80.2952 159.279C80.1869 159.102 80.7858 158.679 81.6686 158.308L83.2344 157.652L82.1643 157.098C81.1182 156.556 81.0568 156.558 79.3979 157.199C78.1624 157.676 77.611 157.763 77.3681 157.518C77.1256 157.273 77.331 157.039 78.1249 156.657C78.7243 156.369 79.142 156.014 79.0528 155.868C78.9639 155.723 78.1191 155.218 77.1755 154.746C76.2319 154.275 75.0448 153.664 74.5373 153.39C73.7936 152.989 73.3913 152.954 72.4673 153.212C71.0226 153.614 70.6669 153.325 71.9411 152.784C72.4682 152.561 72.8179 152.296 72.7184 152.195C72.6189 152.095 71.9701 152.272 71.2769 152.59C69.7601 153.285 68.3526 153.362 68.3526 152.75C68.3526 152.48 68.8326 152.24 69.638 152.106C71.8304 151.741 71.857 151.574 69.9558 150.111C68.3955 148.91 68.0172 148.757 66.5379 148.73C63.7696 148.68 58.8482 147.411 59.3718 146.883C59.5411 146.712 63.205 147.424 65.0272 147.983C65.444 148.11 66.0963 148.098 66.4771 147.956C67.2344 147.673 67.141 147.321 65.9288 145.888C65.3578 145.213 65.2186 145.183 64.1495 145.506C62.5142 146.001 60.489 145.965 60.489 145.442C60.489 145.155 61.0621 144.974 62.3388 144.857C64.1407 144.692 65.6157 144.026 64.1788 144.026C63.789 144.026 63.5135 143.836 63.5135 143.568C63.5135 143.222 63.1433 143.11 61.9961 143.11C60.4503 143.11 55.6919 142.198 53.2303 141.43C52.4818 141.196 50.5764 140.78 48.9961 140.504C47.4158 140.228 44.6624 139.534 42.877 138.962C41.092 138.39 39.101 137.922 38.4529 137.922C37.4524 137.922 37.2219 138.049 36.9288 138.761C36.5363 139.715 34.5958 141.89 34.1373 141.89C32.8734 141.89 32.2712 140.454 32.9771 139.123C33.3567 138.407 33.0884 138.385 31.6113 139.008C30.9187 139.299 30.1383 139.406 29.587 139.284C28.9612 139.145 28.5817 139.224 28.333 139.545C27.8122 140.217 24.7273 139.891 24.8719 139.179C24.9526 138.782 25.3016 138.702 26.6617 138.775C28.3119 138.863 28.3479 138.847 28.2087 138.113C28.0917 137.496 28.2952 137.208 29.3429 136.509L30.6198 135.656L29.7518 135.404C29.2743 135.265 28.2611 135.227 27.5007 135.319C26.7401 135.412 26.0432 135.412 25.9522 135.32C25.7852 135.152 26.2813 133.486 26.688 132.848C26.8087 132.659 27.5322 132.345 28.2958 132.151L29.6847 131.798L28.7547 130.73C27.6595 129.471 27.6305 129.268 28.4298 128.461C29.2455 127.638 30.638 127.683 33.0817 128.611C34.8081 129.267 35.0836 129.304 35.0836 128.882C35.0836 128.352 35.4087 128.376 38.2278 129.113C39.1814 129.362 39.7591 129.694 39.8498 130.044C39.9294 130.351 40.4696 130.725 41.0908 130.903C53.1462 134.355 55.5634 134.849 53.1547 133.37C51.9985 132.66 51.6891 132.124 52.4358 132.124C53.3111 132.124 55.6218 133.384 55.8029 133.961C55.9169 134.323 56.2572 134.562 56.6531 134.558C57.4307 134.55 59.7247 133.547 60.0027 133.092C60.2192 132.739 56.3555 130.7 56.0512 131.007C55.9457 131.113 56.3567 131.41 56.9643 131.666C58.1127 132.15 58.475 133.039 57.5241 133.039C56.6123 133.039 54.3727 131.197 54.5326 130.579C54.6479 130.134 54.2311 129.895 52.2126 129.248C50.8595 128.814 49.3914 128.459 48.9504 128.46C48.5095 128.461 47.4207 128.119 46.5309 127.702C45.6411 127.283 44.5353 126.94 44.0738 126.939C43.021 126.935 39.9971 125.877 39.3502 125.287C38.9773 124.946 34.3753 122.968 33.9564 122.968C33.911 122.968 33.8738 123.192 33.8738 123.465C33.8738 123.888 33.637 123.931 32.286 123.752C30.566 123.523 30.0512 123.225 30.3981 122.659C30.5348 122.436 30.9849 122.365 31.5665 122.474C33.2203 122.785 31.718 121.909 29.8026 121.445C28.5082 121.132 27.9514 121.12 27.3568 121.393C26.9333 121.588 26.3209 121.747 25.9961 121.747C25.6712 121.747 25.4054 121.937 25.4054 122.168C25.4054 122.598 23.0772 123.366 22.6259 123.085C22.1042 122.759 22.4269 122.307 23.5054 121.853C24.567 121.405 24.5975 121.355 24.0522 120.953C23.3255 120.416 22.508 120.429 21.2141 120.995ZM73.695 122.281C73.2564 123.254 73.2513 123.334 73.6611 122.816C74.3936 121.888 74.755 121.137 74.468 121.137C74.3268 121.137 73.9787 121.652 73.695 122.281ZM96.8731 122.663C96.8731 123.586 96.9297 123.964 96.9989 123.502C97.0682 123.04 97.0682 122.285 96.9989 121.824C96.9297 121.362 96.8731 121.74 96.8731 122.663ZM27.22 124.036C27.22 124.307 27.498 124.495 27.9006 124.496C28.275 124.497 28.9785 124.707 29.4645 124.963C30.4102 125.46 30.9858 125.208 30.6888 124.427C30.3703 123.589 27.22 123.235 27.22 124.036ZM92.4925 126.549C92.5612 127.685 92.7448 128.82 92.9002 129.072C93.082 129.366 93.1131 128.764 92.987 127.393C92.7281 124.578 92.3325 123.903 92.4925 126.549ZM19.3565 125.342C18.5629 125.6 17.8793 126.368 18.0481 126.812C18.2991 127.471 18.8599 127.326 19.7723 126.365C20.6056 125.487 20.4075 125 19.3565 125.342ZM35.2155 125.747C34.9312 126.21 35.3595 126.594 36.5221 126.918C37.73 127.255 38.5049 126.909 37.903 126.301C37.4403 125.834 35.4172 125.417 35.2155 125.747ZM87.8603 126.63C87.9631 126.798 88.1071 126.936 88.1806 126.936C88.2541 126.936 88.3139 126.798 88.3139 126.63C88.3139 126.462 88.1697 126.325 87.9937 126.325C87.8176 126.325 87.7574 126.462 87.8603 126.63ZM15.4849 127.721C14.5603 128.853 14.1853 130.293 14.8147 130.293C15.1876 130.293 16.7074 127.309 16.5607 126.865C16.5011 126.684 16.0169 127.07 15.4849 127.721ZM21.6318 127.108C20.6113 127.645 20.275 128.073 20.2684 128.843C20.262 129.574 20.9398 129.516 21.4173 128.744C21.6327 128.396 22.3014 127.904 22.9029 127.65C23.7395 127.297 23.8959 127.124 23.5668 126.914C22.9701 126.533 22.6664 126.564 21.6318 127.108ZM25.7078 127.749C24.002 128.02 23.5907 128.19 23.5907 128.62C23.5907 128.887 23.8687 129.069 24.2712 129.064C25.1471 129.055 27.2104 128.573 27.462 128.319C27.6477 128.132 26.9297 127.515 26.6152 127.592C26.532 127.612 26.1237 127.683 25.7078 127.749ZM41.5091 128.233C41.7069 128.838 44.1446 130.598 44.7854 130.598C45.7871 130.598 45.4269 130.045 43.6976 128.929C41.9482 127.8 41.3004 127.594 41.5091 128.233ZM29.8072 129.35C29.495 129.86 29.8831 130.274 31.1543 130.787C32.3658 131.276 32.763 131.814 32.4741 132.573C32.2854 133.069 30.4725 133.523 29.959 133.202C29.5694 132.959 28.4298 133.282 28.4298 133.636C28.4298 133.773 29.0638 133.981 29.8389 134.099C32.0262 134.43 32.6641 134.762 32.6641 135.569C32.6641 136.085 32.3698 136.425 31.6055 136.793C31.0233 137.073 30.5469 137.445 30.5469 137.619C30.5469 137.801 30.8361 137.748 31.2274 137.494C31.6019 137.251 32.4197 136.957 33.0454 136.842C34.5208 136.57 35.1831 137.076 34.9218 138.276C34.6584 139.486 34.9636 139.356 35.6716 137.955C36.0018 137.302 36.6134 136.513 37.0308 136.201C37.6964 135.703 37.7999 135.372 37.8731 133.506L37.9568 131.378L35.8397 130.818C34.6753 130.51 33.1102 130.051 32.3616 129.798C31.6131 129.545 30.7777 129.266 30.5055 129.178C30.233 129.09 29.9188 129.168 29.8072 129.35ZM47.4884 129.301C47.5023 129.99 50.2086 131.714 50.622 131.297C51.0101 130.905 50.7757 130.603 49.4987 129.848C48.1789 129.067 47.4799 128.877 47.4884 129.301ZM16.4693 131.357C15.7078 132.668 15.6425 133.65 16.3163 133.65C16.6714 133.65 17.8443 131.447 17.8443 130.781C17.8443 129.788 17.2312 130.045 16.4693 131.357ZM93.1576 130.961C93.1603 131.517 93.2943 132.177 93.4555 132.429C93.6705 132.765 93.7498 132.546 93.7534 131.608C93.7558 130.904 93.6218 130.244 93.4555 130.14C93.2768 130.029 93.1549 130.365 93.1576 130.961ZM19.185 131.442C18.137 132.729 17.7565 133.559 18.1122 133.781C18.4192 133.972 21.208 130.737 20.9555 130.482C20.5602 130.083 20.0802 130.343 19.185 131.442ZM22.7451 132.003C21.437 132.579 21.7485 133.052 23.2111 132.71C23.8357 132.563 24.449 132.44 24.5737 132.436C24.6983 132.432 24.8005 132.223 24.8005 131.971C24.8005 131.41 24.0646 131.421 22.7451 132.003ZM13.3345 134.051C12.5835 135.616 12.488 137.312 13.1506 137.312C13.3968 137.312 13.6823 136.934 13.7848 136.473C13.8874 136.011 14.0933 135.153 14.2424 134.565C14.8122 132.324 14.3017 132.035 13.3345 134.051ZM66.4992 133.878C66.1233 134.362 66.1338 134.373 66.6135 133.994C67.1174 133.595 67.2774 133.344 67.0285 133.344C66.9659 133.344 66.7275 133.585 66.4992 133.878ZM19.3665 134.607C18.7213 135.663 18.6503 137.029 19.2307 137.221C19.5851 137.338 20.4807 134.072 20.1776 133.766C20.0766 133.664 19.7116 134.043 19.3665 134.607ZM22.4042 136.576C21.8389 137.056 21.4736 137.655 21.4736 138.102C21.4736 139.031 21.9209 139.038 22.7735 138.121C23.1398 137.727 23.7456 137.242 24.12 137.042C24.4944 136.843 24.8005 136.479 24.8005 136.233C24.8005 135.511 23.4262 135.708 22.4042 136.576ZM14.8742 137.338C13.8913 139.654 13.8223 140.043 14.3583 140.25C15.0076 140.502 15.0666 140.416 15.6337 138.405C15.9936 137.128 16.0329 136.583 15.784 136.332C15.5348 136.08 15.2955 136.345 14.8742 137.338ZM94.1678 139.295C94.1669 140.806 94.218 141.463 94.2815 140.754C94.3447 140.046 94.3456 138.81 94.283 138.008C94.2207 137.205 94.1687 137.785 94.1678 139.295ZM60.489 137.617C60.489 137.785 60.6333 137.922 60.8093 137.922C60.9853 137.922 61.0455 137.785 60.9427 137.617C60.8398 137.449 60.6959 137.312 60.6224 137.312C60.5489 137.312 60.489 137.449 60.489 137.617ZM82.2085 137.825C82.4265 137.914 82.6876 137.903 82.788 137.801C82.8884 137.7 82.7099 137.628 82.3912 137.641C82.0388 137.656 81.9671 137.728 82.2085 137.825ZM39.0154 139.252C39.0154 139.521 39.3215 139.812 39.6959 139.898C42.4324 140.525 42.9632 140.584 43.1465 140.285C43.4036 139.865 42.4043 139.143 41.5662 139.143C41.203 139.143 40.4804 139.057 39.9605 138.952C39.2159 138.802 39.0154 138.865 39.0154 139.252ZM64.8745 139.753C64.7716 139.921 64.8318 140.058 65.0078 140.058C65.1839 140.058 65.3281 139.921 65.3281 139.753C65.3281 139.585 65.2682 139.448 65.1947 139.448C65.1212 139.448 64.9773 139.585 64.8745 139.753ZM15.5699 141.093C14.9027 142.121 14.8086 143.873 15.4205 143.873C15.7338 143.873 15.9413 143.373 16.1052 142.224C16.3822 140.283 16.2616 140.028 15.5699 141.093ZM37.6768 140.938C37.4699 141.275 39.5767 142.5 40.3643 142.5C41.1204 142.5 40.896 141.594 40.0607 141.274C38.6292 140.725 37.8725 140.618 37.6768 140.938ZM17.269 142.24C16.7875 143.634 16.8438 144.941 17.3848 144.941C17.8294 144.941 17.9432 144.626 18.2943 142.424C18.5278 140.957 17.7599 140.82 17.269 142.24ZM30.6843 141.607C30.3991 142.073 31.0838 142.742 32.0701 142.96C32.5522 143.067 33.4335 143.488 34.0284 143.895C35.3244 144.783 35.6885 144.822 35.6885 144.075C35.6885 143.761 35.3213 143.34 34.8568 143.12C31.731 141.64 30.8576 141.324 30.6843 141.607ZM46.5765 142.139C46.5765 142.87 48.7511 144.095 49.829 143.97C51.0609 143.827 50.8888 143.006 49.5819 142.791C48.9894 142.694 48.1765 142.383 47.7757 142.099C46.8442 141.441 46.5765 141.45 46.5765 142.139ZM97.0092 142.066C96.8843 142.193 96.7866 142.651 96.7915 143.085C96.7996 143.776 96.8393 143.806 97.1145 143.33C97.4587 142.732 97.3725 141.696 97.0092 142.066ZM83.9188 145.857C83.9772 147.955 84.1638 150.015 84.3335 150.435C84.6625 151.25 84.6041 149.953 84.0718 144.636C83.8266 142.185 83.8181 142.251 83.9188 145.857ZM21.894 143.269C21.4748 143.692 20.8575 144.664 20.5218 145.429C19.9526 146.728 19.9459 146.846 20.4229 147.198C20.8989 147.549 20.885 147.749 20.2209 150.119C19.7351 151.851 19.3432 152.707 18.9923 152.801C18.2577 152.999 18.0173 154.915 18.0055 160.658C17.9937 166.436 18.4573 169.384 19.4475 169.828C20.396 170.252 21.6372 174.772 21.0003 175.482C20.4123 176.137 20.4547 176.76 21.1473 177.648C21.4669 178.059 21.8946 179.279 22.0978 180.36C22.3014 181.442 23.3106 184.798 24.3408 187.82C25.3709 190.841 26.4673 194.376 26.7767 195.675C27.3386 198.032 27.8107 198.31 27.8204 196.288C27.8234 195.626 27.971 195.297 28.265 195.297C28.7873 195.297 29.1203 196.793 28.9812 198.514C28.8974 199.55 28.7891 199.712 28.2202 199.652C27.5667 199.584 27.5597 199.627 27.7279 202.704C27.9556 206.868 27.6253 208.028 25.7783 209.554C24.991 210.204 23.9503 210.988 23.4655 211.296C22.3014 212.036 19.9614 214.223 19.9614 214.57C19.9614 214.992 23.7828 214.554 26.1509 213.861C28.474 213.182 31.4358 211.772 32.012 211.071C32.887 210.007 32.8038 207.28 31.6859 200.38C31.3608 198.375 31.3285 198.318 30.8645 198.939C30.1296 199.922 29.6396 199.172 29.6396 197.067C29.6396 195.467 29.7013 195.297 30.2799 195.297C30.8942 195.297 30.9117 195.203 30.7081 193.01C30.5914 191.752 30.3712 190.344 30.2188 189.882C29.9914 189.191 29.9663 189.288 30.0779 190.42C30.2397 192.061 29.8767 192.911 29.2743 192.303C28.7181 191.742 28.9016 188.321 29.5256 187.626C30.2651 186.801 29.8162 182.934 28.8457 181.769C27.8703 180.597 27.8857 178.591 28.8871 176.42C29.4645 175.168 29.6853 174.063 29.832 171.69L30.0234 168.593L31.5151 167.123C32.6919 165.963 32.9341 165.564 32.6632 165.235C32.1623 164.626 32.7424 163.708 34.2241 162.764C35.791 161.766 36.5151 162.228 35.0313 163.28C34.0193 163.997 33.2348 164.846 33.4156 165.028C33.4692 165.082 34.0813 164.833 34.7763 164.476C36.725 163.472 40.9018 162.901 44.1703 163.19C46.2245 163.372 47.0574 163.336 47.4648 163.048C48.1792 162.543 51.7973 162.424 51.9543 162.9C52.0916 163.315 54.7425 163.384 54.7425 162.972C54.7425 162.818 54.8127 162.507 54.8986 162.281C55.1617 161.59 53.204 160.731 51.9192 160.974C51.0201 161.144 50.7787 161.082 50.6087 160.635C50.476 160.286 50.5746 159.976 50.8803 159.782C51.2771 159.529 51.0388 159.25 49.506 158.174C47.9155 157.057 47.5861 156.93 47.1899 157.285C46.7423 157.686 44.6986 158.364 43.9301 158.368C43.7224 158.369 43.5521 158.105 43.5521 157.781C43.5521 157.313 43.8935 157.12 45.2155 156.844C46.1304 156.652 46.8747 156.402 46.8696 156.288C46.8642 156.174 46.5209 155.832 46.1065 155.527C45.3767 154.991 45.3029 154.993 43.7302 155.586C42.8374 155.923 42.0238 156.115 41.9222 156.013C41.4713 155.558 41.8188 155.022 42.796 154.666C43.3782 154.453 43.8545 154.179 43.8545 154.056C43.8545 153.934 43.439 153.535 42.9312 153.17C42.2349 152.67 41.7701 152.555 41.0409 152.706C38.4184 153.246 38.0303 153.264 38.1698 152.838C38.2451 152.607 38.8109 152.35 39.427 152.266C40.8104 152.077 40.9529 151.643 39.8124 151.092C38.9579 150.679 38.3334 150.74 35.1592 151.553C34.6802 151.675 34.4787 151.592 34.4787 151.271C34.4787 150.62 35.0655 150.216 36.369 149.97C36.993 149.853 37.5032 149.643 37.5032 149.504C37.5032 149.031 34.7053 148.803 33.7377 149.196C32.0371 149.888 31.7567 149.919 31.7567 149.419C31.7567 148.723 32.9523 147.993 34.0925 147.993C35.4429 147.993 35.3371 147.591 33.738 146.645C32.4384 145.876 32.3477 145.865 31.0916 146.306C30.3761 146.558 29.4848 146.765 29.1103 146.768C28.0742 146.775 28.2629 145.875 29.3435 145.657C30.6241 145.399 30.7166 145.045 29.6496 144.489C29.1451 144.225 28.7323 144.13 28.7323 144.277C28.7323 144.423 28.222 144.765 27.5981 145.035C26.9745 145.305 26.0919 145.832 25.6371 146.205C25.1825 146.579 24.7152 146.788 24.5988 146.671C24.2939 146.363 25.4474 144.892 26.5532 144.178C27.0734 143.843 27.5043 143.487 27.5107 143.387C27.5313 143.069 25.2269 142.5 23.9201 142.5C22.9722 142.5 22.465 142.692 21.894 143.269ZM54.1377 143.074C54.1377 143.499 54.4876 143.737 55.4814 143.989C57.3351 144.461 57.8296 144.425 57.7135 143.83C57.6563 143.538 57.0502 143.159 56.2548 142.919C54.4416 142.373 54.1377 142.395 54.1377 143.074ZM23.2453 143.553C22.1075 144.333 21.5876 145.178 21.9938 145.588C22.1248 145.72 22.8301 145.423 23.5617 144.927C24.293 144.431 25.0071 144.026 25.1483 144.026C25.6026 144.026 25.422 143.182 24.9269 142.99C24.6638 142.888 24.4233 142.805 24.3922 142.805C24.3613 142.805 23.8454 143.142 23.2453 143.553ZM42.3423 144.456C42.3423 145.163 44.1234 146.467 45.0876 146.467C46.2992 146.467 46.1988 145.98 44.898 145.547C44.3073 145.35 43.6622 144.927 43.4641 144.607C43.0434 143.928 42.3423 143.834 42.3423 144.456ZM12.895 146.052C12.582 148.357 12.6528 149.214 13.1564 149.214C13.4162 149.214 13.6227 148.921 13.64 148.527C13.6566 148.15 13.7177 147.429 13.7761 146.925C13.9064 145.799 13.6862 144.636 13.343 144.636C13.2023 144.636 13.0009 145.273 12.895 146.052ZM38.4105 145.353C38.4105 145.911 40.3259 146.582 41.4483 146.417L42.1911 146.307L41.435 145.8C41.0191 145.52 40.1686 145.198 39.5447 145.083C38.6274 144.913 38.4105 144.965 38.4105 145.353ZM50.2618 145.475C50.3278 145.827 50.6967 146.042 51.3425 146.105C52.4288 146.211 52.6451 145.747 51.7381 145.257C50.8292 144.766 50.1475 144.867 50.2618 145.475ZM16.0244 147.698C15.6821 148.376 15.4831 149.062 15.5823 149.224C15.9413 149.81 16.4932 149.499 16.8184 148.527C17.0007 147.982 17.2527 147.295 17.3782 147.001C17.5412 146.62 17.4689 146.467 17.1266 146.467C16.8628 146.467 16.3665 147.021 16.0244 147.698ZM49.4304 147.414C49.1044 147.947 49.9207 148.479 51.8893 149.017C54.8889 149.838 55.884 149.488 53.0791 148.599C52.4137 148.388 51.3663 147.961 50.7515 147.649C49.9875 147.261 49.5695 147.187 49.4304 147.414ZM55.7089 147.409C55.8537 147.847 58.2902 148.482 58.6057 148.164C58.9444 147.822 58.2195 147.414 56.895 147.2C55.8368 147.03 55.5976 147.072 55.7089 147.409ZM21.8686 147.749C21.6986 147.967 21.3469 148.79 21.0871 149.578C20.6824 150.805 20.6754 151.062 21.039 151.366C21.381 151.653 21.522 151.552 21.7648 150.849C21.9309 150.369 22.2799 149.576 22.5409 149.087C22.945 148.329 22.9532 148.134 22.5966 147.775C22.2545 147.43 22.1211 147.425 21.8686 147.749ZM27.5987 148.682C26.7259 149.394 26.0115 150.217 26.0109 150.511C26.01 151.177 26.7113 151.206 27.2412 150.562C27.4599 150.295 28.2323 149.666 28.9576 149.162C30.0267 148.42 30.2091 148.165 29.9209 147.815C29.4255 147.213 29.3771 147.231 27.5987 148.682ZM86.8607 148.756C86.8667 149.26 86.9345 149.429 87.0113 149.132C87.0881 148.835 87.083 148.423 87.0001 148.216C86.9173 148.01 86.8546 148.253 86.8607 148.756ZM45.9716 148.556C45.9716 149.194 49.0796 150.912 49.6218 150.574C50.1058 150.272 49.9294 149.519 49.3741 149.517C49.0832 149.516 48.4366 149.242 47.9375 148.909C47.0042 148.285 45.9716 148.1 45.9716 148.556ZM81.09 149.061C81.0761 149.565 81.1965 150.183 81.3577 150.435C81.5994 150.812 81.6465 150.785 81.6254 150.282C81.6115 149.946 81.4908 149.328 81.3577 148.909C81.1203 148.161 81.1151 148.164 81.09 149.061ZM23.7546 149.927C22.9882 151.247 22.7039 152.783 23.2946 152.414C23.6315 152.204 25.3978 149.203 25.4027 148.832C25.4042 148.706 25.207 148.604 24.9644 148.604C24.7219 148.604 24.1775 149.199 23.7546 149.927ZM42.0934 149.111C42.2074 149.702 46.4764 152.059 46.9259 151.779C47.0931 151.675 46.3164 150.917 45.2004 150.097C43.1151 148.562 41.914 148.181 42.0934 149.111ZM57.4646 150.27C57.4646 150.539 57.9757 150.849 58.7499 151.051C59.4568 151.236 60.2573 151.451 60.5289 151.53C60.8002 151.609 61.1008 151.467 61.1967 151.215C61.3268 150.873 60.9753 150.637 59.8167 150.29C57.8807 149.71 57.4646 149.706 57.4646 150.27ZM63.8779 150.358C63.9665 150.804 64.3101 150.889 65.9593 150.871C67.0454 150.859 68.1732 150.758 68.4651 150.645C69.5865 150.21 68.5186 149.824 66.1955 149.824C64.0482 149.824 63.7835 149.885 63.8779 150.358ZM14.0954 150.614C13.9947 150.878 13.9167 151.53 13.9221 152.062C13.9312 152.978 13.9551 152.998 14.3758 152.436C14.8691 151.778 14.9677 150.563 14.5491 150.302C14.4 150.209 14.1959 150.35 14.0954 150.614ZM15.8865 151.401C15.8076 151.625 15.5974 152.484 15.4196 153.31C15.1564 154.533 15.1776 154.894 15.5336 155.253C15.9147 155.637 16.0093 155.621 16.2737 155.122C16.7539 154.217 16.8522 151.283 16.4079 151.127C16.1999 151.054 15.9655 151.177 15.8865 151.401ZM28.6176 152.611C27.5733 153.841 27.1841 155.012 27.8186 155.012C28.2112 155.012 30.6982 152.279 30.6982 151.848C30.6982 151.024 29.6317 151.415 28.6176 152.611ZM61.2578 151.94C60.8873 152.544 61.4248 152.876 62.7752 152.876C63.7675 152.876 64.1183 152.756 64.1183 152.418C64.1183 152.116 63.8186 151.961 63.2358 151.961C62.7504 151.961 62.1515 151.882 61.9054 151.787C61.6592 151.692 61.3676 151.76 61.2578 151.94ZM51.4156 152.521C51.4156 153.071 52.3572 153.392 54.5378 153.588C56.0911 153.727 56.5711 153.681 56.4792 153.401C56.4117 153.196 55.8235 152.944 55.1717 152.841C54.5196 152.738 53.4079 152.548 52.701 152.42C51.8324 152.263 51.4156 152.296 51.4156 152.521ZM25.9731 152.967C24.8244 153.85 23.6231 156.85 24.4224 156.841C24.7197 156.837 26.9176 153.391 26.9176 152.928C26.9176 152.474 26.5973 152.488 25.9731 152.967ZM95.1964 154.936C94.7536 155.901 93.9618 157.212 93.4367 157.849C92.5303 158.948 92.4154 158.997 91.1748 158.809C90.0597 158.641 89.7164 158.728 88.8378 159.404C88.2713 159.84 85.846 161.141 83.4485 162.296C80.2151 163.853 78.5035 164.491 76.821 164.77C75.5734 164.977 73.6786 165.494 72.6104 165.92C70.8683 166.614 70.3965 166.674 68.0356 166.505C66.5881 166.401 64.6041 166.099 63.6269 165.834C61.6561 165.299 55.8689 164.807 51.347 164.79C48.5917 164.779 48.3758 164.823 47.9424 165.491C47.0943 166.797 46.8028 170.929 47.0232 178.512C47.3078 188.285 47.4228 190.154 47.9257 193.16C48.1647 194.587 48.6443 197.814 48.9922 200.332C49.9748 207.444 50.554 210.352 51.1081 210.953C52.2053 212.143 64.7768 212.178 72.738 211.014C74.5678 210.746 76.9496 210.413 78.0308 210.273C79.1121 210.134 81.5619 209.654 83.4748 209.207C85.3878 208.76 88.382 208.128 90.1286 207.803C98.0406 206.331 101.577 205.194 102.042 203.971C102.149 203.691 102.238 198.5 102.241 192.436C102.246 181.724 102.111 179.267 101.008 170.062C100.831 168.583 100.561 166.068 100.408 164.473C100.078 161.024 99.1566 157.517 98.0823 155.623C97.24 154.138 96.5002 153.181 96.1935 153.181C96.0877 153.181 95.6389 153.971 95.1964 154.936ZM31.2683 154.163C30.246 154.955 29.9529 155.329 29.9466 155.852C29.9393 156.46 30.6652 156.294 31.2767 155.546C31.5858 155.169 32.116 154.551 32.4554 154.173C33.2968 153.236 32.4732 153.229 31.2683 154.163ZM34.8952 154.694C33.3373 155.596 32.7188 156.41 33.213 156.909C33.4426 157.141 34.1593 156.66 36.5202 154.693C36.9358 154.346 37.0295 153.79 36.6715 153.794C36.5465 153.796 35.7475 154.201 34.8952 154.694ZM49.9034 154.177C49.9034 154.929 50.9919 155.649 52.7534 156.063C54.5526 156.485 55.3598 156.162 53.9278 155.593C53.2243 155.314 52.2719 154.877 50.1303 153.85C50.0053 153.79 49.9034 153.937 49.9034 154.177ZM58.7487 154.173C58.8262 154.409 59.5844 154.589 60.7397 154.646C62.7809 154.745 63.2866 154.29 61.4719 153.988C59.6252 153.68 58.6099 153.749 58.7487 154.173ZM84.3822 154.097C84.3822 154.265 84.5264 154.402 84.7024 154.402C84.8785 154.402 84.9387 154.265 84.8358 154.097C84.733 153.929 84.589 153.792 84.5155 153.792C84.442 153.792 84.3822 153.929 84.3822 154.097ZM20.0022 154.376C19.3834 154.762 19.3456 159.132 19.9614 159.132C20.3077 159.132 20.4595 158.59 20.6029 156.844C20.7997 154.448 20.6797 153.954 20.0022 154.376ZM22.2872 154.936C21.7234 155.934 21.4678 157.483 21.7727 158.058C22.2231 158.907 22.5645 158.627 22.778 157.232C22.8748 156.599 23.0454 155.771 23.1567 155.394C23.3055 154.888 23.2344 154.707 22.8878 154.707C22.6286 154.707 22.3585 154.81 22.2872 154.936ZM65.1442 155.446C65.0378 155.726 65.016 156.02 65.0952 156.1C65.1748 156.18 66.2125 156.154 67.4011 156.043C69.683 155.829 70.3805 155.318 68.3904 155.318C67.7459 155.318 66.7953 155.232 66.2778 155.128C65.5628 154.983 65.2912 155.06 65.1442 155.446ZM72.5868 155.444C71.5933 155.806 70.92 156.844 71.6792 156.844C72.0481 156.844 74.7039 155.344 74.7039 155.136C74.7039 154.904 73.6475 155.058 72.5868 155.444ZM11.6565 155.908C11.3913 156.341 11.3861 159.475 11.6502 159.905C12.1559 160.731 12.5058 159.9 12.4338 158.046C12.3582 156.095 12.0539 155.259 11.6565 155.908ZM37.5788 156.592C37.038 156.929 36.5958 157.334 36.5958 157.491C36.5958 158.131 37.5776 158.092 38.566 157.413C40.4626 156.109 39.558 155.357 37.5788 156.592ZM56.8597 156.501C56.8597 157.114 58.0404 157.454 60.1666 157.454C61.6746 157.454 62.3037 157.342 62.3037 157.072C62.3037 156.821 61.8131 156.69 60.8671 156.688C60.0768 156.686 58.8519 156.571 58.1451 156.432C57.2882 156.264 56.8597 156.287 56.8597 156.501ZM13.6261 158.293C13.183 159.902 13.225 160.338 13.9025 161.158L14.4971 161.879L14.5074 159.514C14.518 156.973 14.1354 156.442 13.6261 158.293ZM27.1623 158.598C26.1954 159.644 25.7078 160.584 25.7078 161.401C25.7078 162.408 26.3021 162.132 26.8163 160.887C27.0764 160.258 27.5458 159.378 27.8594 158.933C28.8672 157.501 28.3884 157.272 27.1623 158.598ZM66.0038 158.629C65.9164 158.856 65.9965 159.136 66.1816 159.251C66.5675 159.492 71.1656 159.148 71.6568 158.842C72.4398 158.353 71.7944 158.194 69.0721 158.205C66.9169 158.214 66.1214 158.324 66.0038 158.629ZM56.7075 158.676C56.4707 159.063 56.8787 159.232 58.7778 159.532C60.1445 159.749 60.489 159.72 60.489 159.391C60.489 159.146 60.1533 158.98 59.6552 158.98C59.1967 158.98 58.3819 158.853 57.8447 158.697C57.3073 158.542 56.7958 158.532 56.7075 158.676ZM75.1313 158.962C73.9185 159.255 73.4421 159.564 73.6584 159.916C73.9306 160.361 74.9797 160.251 75.9427 159.677C77.4214 158.795 77.0775 158.493 75.1313 158.962ZM23.7377 159.595C23.3875 159.986 23.137 160.848 23.0518 161.96C22.8927 164.034 23.242 163.887 24.1738 161.486C25.1159 159.06 24.9321 158.263 23.7377 159.595ZM29.2283 159.972C28.3718 161.113 28.1216 162.065 28.6307 162.246C28.924 162.349 30.0261 160.989 30.967 159.361C31.4667 158.497 29.9306 159.036 29.2283 159.972ZM38.4861 159.294C37.3628 159.75 37.6686 160.251 38.9398 160.038C40.5316 159.771 40.8301 159.654 40.8301 159.294C40.8301 158.914 39.4258 158.913 38.4861 159.294ZM33.0572 160.204C31.7362 161.184 31.2625 161.96 31.7095 162.411C32.0806 162.786 35.0437 160.234 35.0739 159.514C35.0942 159.031 34.2464 159.321 33.0572 160.204ZM46.5765 160.119C44.555 160.494 44.7912 161.542 46.8303 161.245C48.5584 160.992 48.7118 160.909 48.4968 160.343C48.3265 159.895 47.9926 159.856 46.5765 160.119ZM40.5458 161.542C39.9739 161.751 39.447 162.099 39.3753 162.316C39.2728 162.626 39.6584 162.664 41.1715 162.493C43.1904 162.264 43.7562 162.001 43.4172 161.448C43.1544 161.019 41.8641 161.061 40.5458 161.542ZM65.453 161.463C65.2573 161.785 66.5769 162.023 68.5794 162.027C69.6192 162.03 70.4697 161.905 70.4697 161.75C70.4697 161.434 65.6381 161.158 65.453 161.463ZM19.5122 161.719C19.0934 162.403 18.979 165.082 19.3492 165.532C19.9968 166.32 20.2638 165.737 20.2638 163.54C20.2638 161.609 19.9883 160.942 19.5122 161.719ZM75.6113 161.836C73.5725 162.197 73.117 162.858 75.0064 162.713C77.6966 162.507 78.6357 162.286 78.6357 161.86C78.6357 161.357 78.3221 161.355 75.6113 161.836ZM15.0282 162.855C14.9459 162.99 14.782 163.752 14.6637 164.549C14.4844 165.758 14.5279 165.999 14.926 165.999C15.5832 165.999 16.0846 164.942 15.9721 163.796C15.8823 162.881 15.3412 162.342 15.0282 162.855ZM27.3332 166.15C26.6012 167.763 26.4697 169.069 27.0383 169.081C27.3649 169.087 29.0314 164.877 28.7961 164.639C28.3893 164.229 28.0418 164.588 27.3332 166.15ZM21.4503 165.738C21.2595 166.098 21.1751 166.933 21.2631 167.594C21.5695 169.9 22.1347 169.534 22.3229 166.908C22.4602 164.992 22.1012 164.511 21.4503 165.738ZM24.6989 165.312C24.3501 165.894 23.6191 168.85 23.7649 169.088C24.2131 169.82 24.7436 169.222 25.0612 167.627C25.2505 166.675 25.4054 165.714 25.4054 165.49C25.4054 165.054 24.926 164.934 24.6989 165.312ZM12.9093 166.503C12.6053 166.809 12.6573 169.597 12.971 169.792C13.1182 169.884 13.4083 169.754 13.6149 169.503C14.2316 168.753 13.5501 165.856 12.9093 166.503ZM27.8606 172.475C27.6341 173.773 27.628 174.468 27.8413 174.683C28.3439 175.19 28.7226 174.259 28.7277 172.502C28.7341 170.254 28.2511 170.239 27.8606 172.475ZM14.3982 171.671C14.2969 171.937 14.1275 172.898 14.0217 173.807C13.8626 175.172 13.9097 175.46 14.292 175.46C14.9163 175.46 15.1222 174.809 15.1222 172.841C15.1222 171.24 14.7753 170.679 14.3982 171.671ZM22.0785 172.841C22.0785 174.509 22.3095 175.155 22.906 175.155C23.2855 175.155 23.3297 174.877 23.1579 173.57C22.9311 171.844 22.7962 171.492 22.3631 171.492C22.2064 171.492 22.0785 172.099 22.0785 172.841ZM24.9889 172.267C24.6747 173.094 24.7781 176.63 25.1232 176.846C25.6059 177.147 25.6352 177.033 25.7517 174.418C25.8231 172.81 25.745 171.964 25.5182 171.887C25.3307 171.824 25.0927 171.995 24.9889 172.267ZM11.4917 174.549C11.1034 176.004 11.2056 178.969 11.6441 178.969C11.9871 178.969 12.3649 173.641 12.0364 173.437C11.9194 173.364 11.6744 173.865 11.4917 174.549ZM12.8343 178.662C12.7254 179.248 12.7208 179.95 12.8243 180.222C13.1573 181.098 13.9125 180.097 13.9125 178.779C13.9125 177.231 13.1167 177.144 12.8343 178.662ZM26.5087 178.262C26.2023 179.416 26.287 181.511 26.649 181.737C27.2276 182.098 27.521 181.167 27.3292 179.58C27.1145 177.803 26.7752 177.258 26.5087 178.262ZM23.4147 180.371C23.6424 182.104 24.0023 182.784 24.6919 182.784C25.0007 182.784 25.0594 182.558 24.9106 181.945C24.4781 180.166 23.9794 178.998 23.5974 178.87C23.2846 178.765 23.2456 179.085 23.4147 180.371ZM27.22 185.665C27.22 187.689 27.5358 188.289 28.2756 187.67C28.5877 187.408 28.624 187.115 28.4135 186.555C28.2562 186.138 28.1274 185.324 28.1274 184.748C28.1274 184.019 27.9889 183.7 27.6737 183.7C27.3174 183.7 27.22 184.121 27.22 185.665ZM24.515 185.76C24.5386 187.332 25.1598 189.04 25.7078 189.04C25.9579 189.04 26.1125 188.835 26.0523 188.583C25.9924 188.331 25.7913 187.335 25.6053 186.37C25.2154 184.348 24.4881 183.941 24.515 185.76ZM26.9176 191.319C26.9176 192.204 27.0752 192.613 27.504 192.845C28.3346 193.294 28.5278 192.799 28.0935 191.336C27.6132 189.718 26.9176 189.707 26.9176 191.319ZM30.8494 196.975C30.8494 197.227 30.9813 197.433 31.1425 197.433C31.3034 197.433 31.3569 197.227 31.2613 196.975C31.1654 196.723 31.0336 196.517 30.9683 196.517C30.9029 196.517 30.8494 196.723 30.8494 196.975ZM30.1438 201.299C29.6045 201.842 30.2487 206.977 30.9078 207.388C31.5048 207.76 31.6763 206.822 31.2643 205.441C31.036 204.676 30.8494 203.385 30.8494 202.572C30.8494 201.198 30.6322 200.806 30.1438 201.299ZM28.3612 204.681C28.1948 207.76 28.2716 208.114 29.1061 208.114C29.6916 208.114 29.7083 207.994 29.4987 205.292C29.3786 203.74 29.2168 202.366 29.1394 202.24C28.7226 201.56 28.4906 202.287 28.3612 204.681Z" fill="black"/>
</svg>
