<svg xmlns="http://www.w3.org/2000/svg" version="1.1" xmlns:xlink="http://www.w3.org/1999/xlink" xmlns:svgjs="http://svgjs.dev/svgjs" width="1000" height="1000"><g clip-path="url(#SvgjsClipPath1096)"><rect width="1000" height="1000" fill="#ffffff"></rect><g transform="matrix(44.44444444444444,0,0,44.44444444444444,144.44444444444446,100)"><svg xmlns="http://www.w3.org/2000/svg" version="1.1" xmlns:xlink="http://www.w3.org/1999/xlink" xmlns:svgjs="http://svgjs.dev/svgjs" width="16" height="18"><svg width="16" height="18" viewBox="0 0 16 18" fill="none" version="1.1" id="svg1" sodipodi:docname="paw-light.svg" inkscape:version="1.3.2 (091e20e, 2023-11-25)" xmlns:inkscape="http://www.inkscape.org/namespaces/inkscape" xmlns:sodipodi="http://sodipodi.sourceforge.net/DTD/sodipodi-0.dtd" xmlns="http://www.w3.org/2000/svg" xmlns:svg="http://www.w3.org/2000/svg">
  <defs id="defs1"><clipPath id="SvgjsClipPath1096"><rect width="1000" height="1000" x="0" y="0" rx="500" ry="500"></rect></clipPath></defs>
  <sodipodi:namedview id="namedview1" pagecolor="#505050" bordercolor="#eeeeee" borderopacity="1" inkscape:showpageshadow="0" inkscape:pageopacity="0" inkscape:pagecheckerboard="0" inkscape:deskcolor="#505050" inkscape:zoom="13.111111" inkscape:cx="7.970339" inkscape:cy="9" inkscape:window-width="1312" inkscape:window-height="449" inkscape:window-x="0" inkscape:window-y="25" inkscape:window-maximized="0" inkscape:current-layer="svg1"></sodipodi:namedview>
  <path fill-rule="evenodd" clip-rule="evenodd" d="M8.85764 3.71621C8.45087 5.00359 7.46018 5.83839 6.64482 5.58076C5.82948 5.32314 5.49827 4.07067 5.90503 2.78329C6.3118 1.49592 7.30251 0.661127 8.11785 0.918746C8.93322 1.17637 9.26441 2.42884 8.85764 3.71621ZM10.3221 9.36004C10.4272 10.2458 10.8589 11.1504 11.5087 11.7164C12.495 12.5753 12.9474 13.8972 12.5549 15.1393C12.0126 16.8558 10.0621 17.77 8.19853 17.1811C7.73748 17.0355 7.32496 16.8115 6.9733 16.5308C6.30494 15.9973 5.3669 15.7009 4.51333 15.7535C4.06428 15.7812 3.59793 15.7275 3.13689 15.5818C1.27326 14.993 0.20216 13.1241 0.744507 11.4076C1.13697 10.1655 2.26679 9.34352 3.56749 9.20723C4.42457 9.11741 5.29763 8.625 5.8926 7.96047C6.62624 7.14107 7.66067 6.7563 8.61377 7.05745C9.56687 7.3586 10.1924 8.26785 10.3221 9.36004ZM11.0737 6.98014C11.8891 7.23777 12.8798 6.40297 13.2866 5.1156C13.6933 3.82822 13.3621 2.57576 12.5468 2.31813C11.7314 2.0605 10.7407 2.8953 10.3339 4.18267C9.92718 5.47005 10.2584 6.72252 11.0737 6.98014ZM15.7498 10.1668C15.343 11.4542 14.3523 12.2889 13.537 12.0313C12.7216 11.7737 12.3904 10.5213 12.7972 9.23384C13.2039 7.94646 14.1946 7.11167 15.01 7.36929C15.8254 7.62692 16.1565 8.87938 15.7498 10.1668ZM1.72653 8.29962C2.54187 8.55724 3.53257 7.72249 3.93935 6.43507C4.34612 5.1477 4.01491 3.89522 3.19957 3.6376C2.38422 3.37998 1.39351 4.21477 0.986744 5.50215C0.579965 6.78956 0.91119 8.042 1.72653 8.29962Z" fill="white" id="path1" style="fill:#1a1a1a"></path>
</svg></svg></g></g></svg>